<svg width="406" height="248" viewBox="0 0 406 248" fill="none" xmlns="http://www.w3.org/2000/svg">
<g clip-path="url(#clip0_41_390)">
<path d="M258.205 77.5887C258.971 69.6121 261.086 61.8112 264.466 54.4977C265.408 52.4624 266.445 50.4719 267.577 48.5262C267.633 48.4245 267.647 48.3054 267.615 48.194C267.583 48.0827 267.507 47.9879 267.404 47.9295C267.3 47.8712 267.178 47.8539 267.062 47.8813C266.946 47.9087 266.845 47.9787 266.781 48.0764C262.666 55.1631 259.783 62.8557 258.247 70.8468C257.82 73.0783 257.499 75.3256 257.284 77.5887C257.229 78.1595 258.151 78.1559 258.205 77.5887Z" fill="#E6E6E6"/>
<path d="M269.808 49.9554C273.031 49.9554 275.644 47.4286 275.644 44.3115C275.644 41.1945 273.031 38.6676 269.808 38.6676C266.585 38.6676 263.973 41.1945 263.973 44.3115C263.973 47.4286 266.585 49.9554 269.808 49.9554Z" fill="#E6E6E6"/>
<path d="M258.802 77.7386C259.299 72.5638 260.671 67.503 262.864 62.7584C263.475 61.438 264.148 60.1467 264.882 58.8844C264.919 58.8184 264.928 58.7411 264.907 58.6689C264.886 58.5967 264.837 58.5352 264.77 58.4974C264.703 58.4595 264.623 58.4483 264.548 58.4661C264.472 58.4838 264.407 58.5292 264.366 58.5926C261.696 63.19 259.826 68.1806 258.829 73.3648C258.552 74.8125 258.344 76.2704 258.205 77.7386C258.169 78.1089 258.767 78.1065 258.802 77.7386Z" fill="#E6E6E6"/>
<path d="M266.33 59.8116C268.421 59.8116 270.115 58.1723 270.115 56.1501C270.115 54.128 268.421 52.4887 266.33 52.4887C264.239 52.4887 262.544 54.128 262.544 56.1501C262.544 58.1723 264.239 59.8116 266.33 59.8116Z" fill="#E6E6E6"/>
<path d="M258.048 77.393C255.149 73.0172 253.012 68.2107 251.724 63.1652C251.366 61.7606 251.075 60.3423 250.851 58.9103C250.838 58.8363 250.796 58.7701 250.734 58.7256C250.671 58.6811 250.594 58.6618 250.517 58.6718C250.44 58.6818 250.37 58.7203 250.322 58.7791C250.274 58.838 250.251 58.9126 250.259 58.9872C251.077 64.2004 252.776 69.248 255.288 73.9282C255.99 75.2345 256.753 76.508 257.576 77.7485C257.784 78.0616 258.254 77.704 258.048 77.393Z" fill="#E6E6E6"/>
<path d="M250.254 59.5546C252.345 59.5546 254.04 57.9153 254.04 55.8931C254.04 53.871 252.345 52.2317 250.254 52.2317C248.163 52.2317 246.468 53.871 246.468 55.8931C246.468 57.9153 248.163 59.5546 250.254 59.5546Z" fill="#E6E6E6"/>
<path d="M246.426 80.6325V73.4385C246.427 72.7233 246.721 72.0375 247.244 71.5318C247.767 71.026 248.476 70.7416 249.215 70.7408H266.571C267.31 70.7416 268.019 71.026 268.542 71.5318C269.065 72.0375 269.359 72.7233 269.36 73.4385V80.6325C269.359 81.3477 269.065 82.0334 268.542 82.5392C268.019 83.0449 267.31 83.3294 266.571 83.3302H249.215C248.476 83.3294 247.767 83.0449 247.244 82.5392C246.721 82.0334 246.427 81.3477 246.426 80.6325Z" fill="#F2F2F2"/>
<path d="M265.951 34.7709H258.513C257.773 34.7701 257.064 34.4856 256.541 33.9798C256.019 33.4741 255.724 32.7884 255.724 32.0731V2.69774C255.724 1.9825 256.019 1.2968 256.541 0.791049C257.064 0.285299 257.773 0.00080606 258.513 0H265.951C266.691 0.00080606 267.4 0.285299 267.923 0.791049C268.445 1.2968 268.74 1.9825 268.74 2.69774V32.0731C268.74 32.7884 268.445 33.4741 267.923 33.9798C267.4 34.4856 266.691 34.7701 265.951 34.7709Z" fill="#F2F2F2"/>
<path d="M268.431 5.69522H256.034V8.09321H268.431V5.69522Z" fill="#CCCCCC"/>
<path d="M268.431 24.2797H256.034V26.6777H268.431V24.2797Z" fill="#CCCCCC"/>
<path d="M284.546 34.7709H277.108C276.369 34.7701 275.66 34.4856 275.137 33.9798C274.614 33.4741 274.32 32.7884 274.319 32.0731V2.69774C274.32 1.9825 274.614 1.2968 275.137 0.791049C275.66 0.285299 276.369 0.00080606 277.108 0H284.546C285.286 0.00080606 285.995 0.285299 286.518 0.791049C287.041 1.2968 287.335 1.9825 287.336 2.69774V32.0731C287.335 32.7884 287.041 33.4741 286.518 33.9798C285.995 34.4856 285.286 34.7701 284.546 34.7709Z" fill="#F2F2F2"/>
<path d="M287.026 5.69522H274.629V8.09321H287.026V5.69522Z" fill="#CCCCCC"/>
<path d="M287.026 24.2797H274.629V26.6777H287.026V24.2797Z" fill="#CCCCCC"/>
<path d="M303.142 34.7709H295.704C294.964 34.7701 294.255 34.4856 293.732 33.9798C293.209 33.4741 292.915 32.7884 292.915 32.0731V2.69774C292.915 1.9825 293.209 1.2968 293.732 0.791049C294.255 0.285299 294.964 0.00080606 295.704 0H303.142C303.882 0.00080606 304.591 0.285299 305.113 0.791049C305.636 1.2968 305.931 1.9825 305.931 2.69774V32.0731C305.931 32.7884 305.636 33.4741 305.113 33.9798C304.591 34.4856 303.882 34.7701 303.142 34.7709Z" fill="#F2F2F2"/>
<path d="M305.622 5.69522H293.225V8.09321H305.622V5.69522Z" fill="#CCCCCC"/>
<path d="M305.622 24.2797H293.225V26.6777H305.622V24.2797Z" fill="#CCCCCC"/>
<path d="M313.06 83.3302H305.621C304.882 83.3294 304.173 83.0449 303.65 82.5392C303.127 82.0334 302.833 81.3477 302.832 80.6325V51.2571C302.833 50.5418 303.127 49.8561 303.65 49.3504C304.173 48.8446 304.882 48.5601 305.621 48.5593H313.06C313.799 48.5601 314.508 48.8446 315.031 49.3504C315.554 49.8561 315.848 50.5418 315.849 51.2571V80.6325C315.848 81.3477 315.554 82.0334 315.031 82.5392C314.508 83.0449 313.799 83.3294 313.06 83.3302Z" fill="#F2F2F2"/>
<path d="M315.539 54.2545H303.142V56.6525H315.539V54.2545Z" fill="#CCCCCC"/>
<path d="M315.539 72.839H303.142V75.237H315.539V72.839Z" fill="#CCCCCC"/>
<path d="M331.655 83.3302H324.217C323.478 83.3294 322.769 83.0449 322.246 82.5392C321.723 82.0334 321.429 81.3477 321.428 80.6325V51.2571C321.429 50.5418 321.723 49.8561 322.246 49.3504C322.769 48.8446 323.478 48.5601 324.217 48.5593H331.655C332.395 48.5601 333.104 48.8446 333.627 49.3504C334.15 49.8561 334.444 50.5418 334.445 51.2571V80.6325C334.444 81.3477 334.15 82.0334 333.627 82.5392C333.104 83.0449 332.395 83.3294 331.655 83.3302Z" fill="#F2F2F2"/>
<path d="M334.134 54.2545H321.737V56.6525H334.134V54.2545Z" fill="#CCCCCC"/>
<path d="M334.134 72.839H321.737V75.237H334.134V72.839Z" fill="#CCCCCC"/>
<path d="M350.25 83.3302H342.812C342.073 83.3294 341.364 83.0449 340.841 82.5392C340.318 82.0334 340.024 81.3477 340.023 80.6325V51.2571C340.024 50.5418 340.318 49.8561 340.841 49.3504C341.364 48.8446 342.073 48.5601 342.812 48.5593H350.25C350.99 48.5601 351.699 48.8446 352.222 49.3504C352.745 49.8561 353.039 50.5418 353.04 51.2571V80.6325C353.039 81.3477 352.745 82.0334 352.222 82.5392C351.699 83.0449 350.99 83.3294 350.25 83.3302Z" fill="#F2F2F2"/>
<path d="M352.73 54.2545H340.333V56.6525H352.73V54.2545Z" fill="#CCCCCC"/>
<path d="M352.73 72.839H340.333V75.237H352.73V72.839Z" fill="#CCCCCC"/>
<path d="M264.092 131.89H256.654C255.914 131.889 255.205 131.604 254.682 131.099C254.159 130.593 253.865 129.907 253.864 129.192V99.8164C253.865 99.1012 254.159 98.4155 254.682 97.9097C255.205 97.404 255.914 97.1195 256.654 97.1187H264.092C264.831 97.1195 265.54 97.404 266.063 97.9097C266.586 98.4155 266.88 99.1012 266.881 99.8164V129.192C266.88 129.907 266.586 130.593 266.063 131.099C265.54 131.604 264.831 131.889 264.092 131.89Z" fill="#F2F2F2"/>
<path d="M266.571 102.814H254.174V105.212H266.571V102.814Z" fill="#CCCCCC"/>
<path d="M266.571 121.398H254.174V123.796H266.571V121.398Z" fill="#CCCCCC"/>
<path d="M282.687 131.89H275.249C274.509 131.889 273.8 131.604 273.277 131.099C272.754 130.593 272.46 129.907 272.459 129.192V99.8164C272.46 99.1012 272.754 98.4155 273.277 97.9097C273.8 97.404 274.509 97.1195 275.249 97.1187H282.687C283.426 97.1195 284.135 97.404 284.658 97.9097C285.181 98.4155 285.475 99.1012 285.476 99.8164V129.192C285.475 129.907 285.181 130.593 284.658 131.099C284.135 131.604 283.426 131.889 282.687 131.89Z" fill="#F2F2F2"/>
<path d="M285.166 102.814H272.77V105.212H285.166V102.814Z" fill="#CCCCCC"/>
<path d="M285.166 121.398H272.77V123.796H285.166V121.398Z" fill="#CCCCCC"/>
<path d="M301.282 131.89H293.844C293.104 131.889 292.395 131.604 291.873 131.099C291.35 130.593 291.056 129.907 291.055 129.192V99.8164C291.056 99.1012 291.35 98.4155 291.873 97.9097C292.395 97.404 293.104 97.1195 293.844 97.1187H301.282C302.022 97.1195 302.731 97.404 303.254 97.9097C303.776 98.4155 304.071 99.1012 304.071 99.8164V129.192C304.071 129.907 303.776 130.593 303.254 131.099C302.731 131.604 302.022 131.889 301.282 131.89Z" fill="#F2F2F2"/>
<path d="M303.762 102.814H291.365V105.212H303.762V102.814Z" fill="#CCCCCC"/>
<path d="M303.762 121.398H291.365V123.796H303.762V121.398Z" fill="#CCCCCC"/>
<path d="M321.737 34.7709H314.299C313.56 34.7701 312.851 34.4856 312.328 33.9798C311.805 33.4741 311.511 32.7884 311.51 32.0731V2.69774C311.511 1.9825 311.805 1.2968 312.328 0.791049C312.851 0.285299 313.56 0.00080606 314.299 0H321.737C322.477 0.00080606 323.186 0.285299 323.709 0.791049C324.232 1.2968 324.526 1.9825 324.527 2.69774V32.0731C324.526 32.7884 324.232 33.4741 323.709 33.9798C323.186 34.4856 322.477 34.7701 321.737 34.7709Z" fill="#F2F2F2"/>
<path d="M324.217 5.69522H311.82V8.09321H324.217V5.69522Z" fill="#CCCCCC"/>
<path d="M324.217 24.2797H311.82V26.6777H324.217V24.2797Z" fill="#CCCCCC"/>
<path d="M340.333 34.7709H332.895C332.155 34.7701 331.446 34.4856 330.923 33.9798C330.4 33.4741 330.106 32.7884 330.105 32.0731V2.69774C330.106 1.9825 330.4 1.2968 330.923 0.791049C331.446 0.285299 332.155 0.00080606 332.895 0H340.333C341.072 0.00080606 341.781 0.285299 342.304 0.791049C342.827 1.2968 343.121 1.9825 343.122 2.69774V32.0731C343.121 32.7884 342.827 33.4741 342.304 33.9798C341.781 34.4856 341.072 34.7701 340.333 34.7709Z" fill="#F2F2F2"/>
<path d="M342.812 5.69522H330.415V8.09321H342.812V5.69522Z" fill="#CCCCCC"/>
<path d="M342.812 24.2797H330.415V26.6777H342.812V24.2797Z" fill="#CCCCCC"/>
<path d="M358.928 34.7709H351.49C350.75 34.7701 350.041 34.4856 349.519 33.9798C348.996 33.4741 348.702 32.7884 348.701 32.0731V2.69774C348.702 1.9825 348.996 1.2968 349.519 0.791049C350.041 0.285299 350.75 0.00080606 351.49 0H358.928C359.668 0.00080606 360.377 0.285299 360.9 0.791049C361.422 1.2968 361.717 1.9825 361.717 2.69774V32.0731C361.717 32.7884 361.422 33.4741 360.9 33.9798C360.377 34.4856 359.668 34.7701 358.928 34.7709Z" fill="#F2F2F2"/>
<path d="M361.408 5.69522H349.011V8.09321H361.408V5.69522Z" fill="#CCCCCC"/>
<path d="M361.408 24.2797H349.011V26.6777H361.408V24.2797Z" fill="#CCCCCC"/>
<path d="M377.524 34.7709H370.086C369.346 34.7701 368.637 34.4856 368.114 33.9798C367.591 33.4741 367.297 32.7884 367.296 32.0731V2.69774C367.297 1.9825 367.591 1.2968 368.114 0.791049C368.637 0.285299 369.346 0.00080606 370.086 0H377.524C378.263 0.00080606 378.972 0.285299 379.495 0.791049C380.018 1.2968 380.312 1.9825 380.313 2.69774V32.0731C380.312 32.7884 380.018 33.4741 379.495 33.9798C378.972 34.4856 378.263 34.7701 377.524 34.7709Z" fill="#F2F2F2"/>
<path d="M380.003 5.69522H367.606V8.09321H380.003V5.69522Z" fill="#CCCCCC"/>
<path d="M380.003 24.2797H367.606V26.6777H380.003V24.2797Z" fill="#CCCCCC"/>
<path d="M405.38 35.6701H228.724C228.559 35.6701 228.402 35.607 228.286 35.4945C228.169 35.3821 228.104 35.2296 228.104 35.0706C228.104 34.9116 228.169 34.7591 228.286 34.6467C228.402 34.5343 228.559 34.4711 228.724 34.4711H405.38C405.545 34.4711 405.702 34.5343 405.819 34.6467C405.935 34.7591 406 34.9116 406 35.0706C406 35.2296 405.935 35.3821 405.819 35.4945C405.702 35.607 405.545 35.6701 405.38 35.6701Z" fill="#CCCCCC"/>
<path d="M405.38 84.2295H228.724C228.559 84.2295 228.402 84.1663 228.286 84.0539C228.169 83.9414 228.104 83.789 228.104 83.63C228.104 83.471 228.169 83.3185 228.286 83.206C228.402 83.0936 228.559 83.0305 228.724 83.0305H405.38C405.545 83.0305 405.702 83.0936 405.819 83.206C405.935 83.3185 406 83.471 406 83.63C406 83.789 405.935 83.9414 405.819 84.0539C405.702 84.1663 405.545 84.2295 405.38 84.2295Z" fill="#CCCCCC"/>
<path d="M405.38 132.789H228.724C228.559 132.789 228.402 132.726 228.286 132.613C228.169 132.501 228.104 132.348 228.104 132.189C228.104 132.03 228.169 131.878 228.286 131.765C228.402 131.653 228.559 131.59 228.724 131.59H405.38C405.545 131.59 405.702 131.653 405.819 131.765C405.935 131.878 406 132.03 406 132.189C406 132.348 405.935 132.501 405.819 132.613C405.702 132.726 405.545 132.789 405.38 132.789Z" fill="#CCCCCC"/>
<path d="M360.48 126.148C361.246 118.171 363.361 110.371 366.741 103.057C367.683 101.022 368.72 99.0312 369.852 97.0855C369.908 96.9838 369.922 96.8647 369.89 96.7534C369.857 96.642 369.782 96.5472 369.678 96.4889C369.575 96.4305 369.453 96.4132 369.337 96.4406C369.22 96.468 369.12 96.538 369.056 96.6358C364.941 103.722 362.058 111.415 360.522 119.406C360.095 121.638 359.774 123.885 359.559 126.148C359.504 126.719 360.426 126.715 360.48 126.148Z" fill="#E6E6E6"/>
<path d="M372.083 98.5148C375.306 98.5148 377.919 95.9879 377.919 92.8709C377.919 89.7538 375.306 87.227 372.083 87.227C368.86 87.227 366.248 89.7538 366.248 92.8709C366.248 95.9879 368.86 98.5148 372.083 98.5148Z" fill="#E6E6E6"/>
<path d="M361.077 126.298C361.574 121.123 362.946 116.062 365.139 111.318C365.75 109.997 366.423 108.706 367.157 107.444C367.194 107.378 367.203 107.3 367.182 107.228C367.161 107.156 367.111 107.095 367.045 107.057C366.978 107.019 366.898 107.008 366.823 107.025C366.747 107.043 366.682 107.089 366.641 107.152C363.971 111.749 362.101 116.74 361.104 121.924C360.827 123.372 360.619 124.83 360.48 126.298C360.444 126.668 361.042 126.666 361.077 126.298Z" fill="#E6E6E6"/>
<path d="M368.605 108.371C370.695 108.371 372.39 106.732 372.39 104.709C372.39 102.687 370.695 101.048 368.605 101.048C366.514 101.048 364.819 102.687 364.819 104.709C364.819 106.732 366.514 108.371 368.605 108.371Z" fill="#E6E6E6"/>
<path d="M360.323 125.952C357.424 121.577 355.287 116.77 353.999 111.725C353.641 110.32 353.35 108.902 353.126 107.47C353.113 107.396 353.071 107.329 353.009 107.285C352.946 107.24 352.868 107.221 352.792 107.231C352.715 107.241 352.645 107.28 352.597 107.338C352.549 107.397 352.526 107.472 352.534 107.547C353.352 112.76 355.051 117.807 357.563 122.488C358.265 123.794 359.028 125.067 359.851 126.308C360.059 126.621 360.529 126.263 360.323 125.952Z" fill="#E6E6E6"/>
<path d="M352.529 108.114C354.62 108.114 356.315 106.475 356.315 104.452C356.315 102.43 354.62 100.791 352.529 100.791C350.438 100.791 348.743 102.43 348.743 104.452C348.743 106.475 350.438 108.114 352.529 108.114Z" fill="#E6E6E6"/>
<path d="M348.701 129.192V121.998C348.702 121.283 348.996 120.597 349.519 120.091C350.041 119.585 350.75 119.301 351.49 119.3H368.846C369.585 119.301 370.294 119.585 370.817 120.091C371.34 120.597 371.634 121.283 371.635 121.998V129.192C371.634 129.907 371.34 130.593 370.817 131.099C370.294 131.604 369.585 131.889 368.846 131.89H351.49C350.75 131.889 350.041 131.604 349.519 131.099C348.996 130.593 348.702 129.907 348.701 129.192Z" fill="#F2F2F2"/>
<path d="M236.782 217.917H0.619847C0.455454 217.917 0.297802 217.854 0.181558 217.742C0.0653141 217.629 0 217.477 0 217.318C0 217.159 0.0653141 217.007 0.181558 216.894C0.297802 216.782 0.455454 216.718 0.619847 216.718H236.782C236.946 216.718 237.104 216.782 237.22 216.894C237.336 217.007 237.402 217.159 237.402 217.318C237.402 217.477 237.336 217.629 237.22 217.742C237.104 217.854 236.946 217.917 236.782 217.917Z" fill="#3F3D56"/>
<path d="M123.386 139.383C132.629 139.383 140.122 132.136 140.122 123.197C140.122 114.257 132.629 107.01 123.386 107.01C114.143 107.01 106.65 114.257 106.65 123.197C106.65 132.136 114.143 139.383 123.386 139.383Z" fill="#2F2E41"/>
<path d="M107.485 227.105L107.042 219.769L136.091 214.622L136.746 225.451L107.485 227.105Z" fill="#FFB8B8"/>
<path d="M108.892 214.405L109.747 228.555L100.535 229.076L99.1417 206.016C100.351 205.948 101.563 206.111 102.708 206.495C103.853 206.88 104.908 207.479 105.813 208.258C106.719 209.037 107.456 209.98 107.985 211.035C108.513 212.09 108.821 213.235 108.892 214.405Z" fill="#2F2E41"/>
<path d="M120.12 227.038L115.294 232.716L90.354 217.417L97.4754 209.038L120.12 227.038Z" fill="#FFB8B8"/>
<path d="M110.17 235.438L119.476 224.488L126.605 230.155L111.44 248C110.504 247.256 109.728 246.341 109.158 245.307C108.587 244.272 108.233 243.14 108.115 241.973C107.997 240.807 108.118 239.63 108.471 238.508C108.823 237.387 109.401 236.344 110.17 235.438Z" fill="#2F2E41"/>
<path d="M106.234 200.634L102.936 215.669C102.86 216.015 102.865 216.373 102.949 216.717C103.033 217.062 103.195 217.384 103.423 217.661C103.651 217.937 103.939 218.162 104.268 218.318C104.596 218.474 104.956 218.558 105.322 218.564L137.738 219.07C138.104 219.075 138.466 219.003 138.799 218.857C139.132 218.712 139.428 218.497 139.665 218.228C139.902 217.959 140.075 217.643 140.171 217.302C140.267 216.961 140.284 216.603 140.22 216.255L137.385 200.715C137.283 200.16 136.983 199.657 136.536 199.294C136.09 198.932 135.526 198.734 134.943 198.734H108.659C108.091 198.734 107.54 198.922 107.098 199.268C106.657 199.614 106.352 200.096 106.234 200.634Z" fill="#2F2E41"/>
<path d="M111.609 205.928C111.609 205.928 79.997 186.744 73.7986 196.935C70.6993 202.031 72.2489 206.977 74.5734 210.649C76.7305 213.992 79.8269 216.672 83.5007 218.377L109.13 230.507L118.428 220.915L112.229 215.519L111.609 205.928Z" fill="#2F2E41"/>
<path d="M127.725 202.93C127.725 202.93 168.635 191.54 160.577 213.121C152.519 234.703 122.147 226.31 122.147 226.31L119.047 217.318L129.585 210.124L127.725 202.93Z" fill="#2F2E41"/>
<path d="M123.596 141.617C132.004 141.617 138.82 135.025 138.82 126.893C138.82 118.761 132.004 112.169 123.596 112.169C115.188 112.169 108.372 118.761 108.372 126.893C108.372 135.025 115.188 141.617 123.596 141.617Z" fill="#FFB8B8"/>
<path d="M124.394 205.309C118.068 205.217 111.774 204.415 105.639 202.92L105.458 202.872L96.9625 165.076C96.1982 161.755 96.7179 158.278 98.4232 155.302C100.129 152.326 102.902 150.057 106.219 148.924C116.465 145.368 127.632 145.153 138.016 148.31C141.501 149.396 144.434 151.712 146.23 154.798C148.027 157.883 148.554 161.51 147.708 164.954L138.219 202.84L138.085 202.901C134.142 204.708 129.211 205.309 124.394 205.309Z" fill="#CCCCCC"/>
<path d="M112.982 208.245C113.291 207.416 113.783 206.662 114.426 206.037C115.068 205.412 115.844 204.931 116.7 204.627C117.555 204.323 118.469 204.205 119.377 204.28C120.285 204.355 121.165 204.621 121.955 205.061L138.682 191.018L140.196 202.054L124.079 213.697C123.228 214.932 121.938 215.821 120.454 216.197C118.97 216.574 117.395 216.41 116.027 215.738C114.659 215.066 113.594 213.932 113.032 212.551C112.471 211.17 112.453 209.638 112.982 208.245Z" fill="#FFB8B8"/>
<path d="M128.936 211.308C128.664 211.308 128.393 211.27 128.132 211.194C127.709 211.075 127.322 210.86 127.002 210.566C126.683 210.272 126.441 209.909 126.296 209.506L124.277 203.973C124.088 203.462 124.064 202.907 124.208 202.382C124.352 201.858 124.658 201.388 125.084 201.034L147.875 187.801L138.891 149.037L139.12 148.983C139.213 148.961 148.418 146.935 152.19 156.663C154.831 163.477 164.606 178.291 163.916 188.303C163.785 190.305 162.96 192.207 161.575 193.7C160.189 195.193 158.323 196.191 156.279 196.532L130.624 210.748C130.141 211.11 129.547 211.308 128.936 211.308Z" fill="#CCCCCC"/>
<path d="M131.492 206.93C131.183 206.101 130.69 205.347 130.048 204.722C129.406 204.097 128.63 203.616 127.774 203.312C126.919 203.008 126.005 202.89 125.097 202.965C124.189 203.04 123.309 203.306 122.519 203.746L105.792 189.703L104.278 200.739L120.395 212.382C121.246 213.617 122.536 214.506 124.02 214.882C125.504 215.259 127.079 215.095 128.447 214.423C129.815 213.751 130.88 212.617 131.442 211.236C132.003 209.855 132.021 208.323 131.492 206.93Z" fill="#FFB8B8"/>
<path d="M117.217 211.308C116.605 211.307 116.011 211.11 115.528 210.748L88.0143 197.731C85.97 197.39 84.1043 196.392 82.7184 194.899C81.3326 193.406 80.5076 191.504 80.3766 189.502C79.687 179.49 91.3215 163.477 93.963 156.663C97.7348 146.935 106.94 148.961 107.033 148.983L107.261 149.037L96.4177 189L121.068 201.034C121.495 201.388 121.8 201.858 121.944 202.382C122.089 202.907 122.064 203.462 121.875 203.973L119.856 209.506C119.712 209.909 119.47 210.272 119.15 210.566C118.831 210.86 118.443 211.075 118.02 211.194C117.759 211.27 117.489 211.308 117.217 211.308Z" fill="#CCCCCC"/>
<path d="M150.04 217.318H94.8731C93.7228 217.317 92.6199 216.874 91.8065 216.087C90.9931 215.301 90.5355 214.234 90.5342 213.121V183.746C90.5355 182.633 90.9931 181.567 91.8065 180.78C92.6199 179.993 93.7228 179.551 94.8731 179.55H150.04C151.19 179.551 152.293 179.993 153.106 180.78C153.92 181.567 154.377 182.633 154.378 183.746V213.121C154.377 214.234 153.92 215.301 153.106 216.087C152.293 216.874 151.19 217.317 150.04 217.318Z" fill="#6C63FF"/>
<path d="M122.456 202.031C124.51 202.031 126.175 200.42 126.175 198.434C126.175 196.447 124.51 194.837 122.456 194.837C120.402 194.837 118.737 196.447 118.737 198.434C118.737 200.42 120.402 202.031 122.456 202.031Z" fill="white"/>
<path d="M108.22 126.294C107.317 124.08 108.798 121.442 110.994 120.37C113.19 119.298 115.84 119.502 118.189 120.208C120.163 120.802 122.013 121.723 123.939 122.45C125.838 123.263 127.912 123.621 129.985 123.491C132.039 123.266 134.084 122.152 134.924 120.325C135.796 118.432 135.203 116.121 133.861 114.505C132.433 112.943 130.586 111.794 128.523 111.187C123.994 109.644 118.762 109.598 114.557 111.842C110.352 114.085 107.494 118.862 108.363 123.43" fill="#2F2E41"/>
<path d="M20.246 210.914C21.0118 202.938 23.1269 195.137 26.5068 187.823C27.4488 185.788 28.4856 183.798 29.6172 181.852C29.674 181.75 29.6877 181.631 29.6554 181.52C29.6231 181.408 29.5474 181.314 29.4441 181.255C29.3409 181.197 29.2183 181.18 29.1022 181.207C28.9861 181.234 28.8855 181.304 28.8216 181.402C24.7063 188.489 21.8232 196.181 20.2877 204.173C19.8606 206.404 19.5395 208.651 19.3246 210.914C19.27 211.485 20.1917 211.482 20.246 210.914Z" fill="#E6E6E6"/>
<path d="M31.8487 183.281C35.0715 183.281 37.6842 180.754 37.6842 177.637C37.6842 174.52 35.0715 171.993 31.8487 171.993C28.6258 171.993 26.0132 174.52 26.0132 177.637C26.0132 180.754 28.6258 183.281 31.8487 183.281Z" fill="#6C63FF"/>
<path d="M20.8429 211.064C21.3397 205.89 22.7119 200.829 24.9046 196.084C25.5157 194.764 26.1883 193.472 26.9225 192.21C26.9593 192.144 26.9681 192.067 26.9472 191.995C26.9262 191.922 26.8771 191.861 26.8101 191.823C26.7432 191.785 26.6637 191.774 26.5883 191.792C26.513 191.81 26.4477 191.855 26.4063 191.918C23.7365 196.516 21.8661 201.506 20.87 206.691C20.5929 208.138 20.3846 209.596 20.2452 211.064C20.2097 211.435 20.8077 211.432 20.8429 211.064Z" fill="#E6E6E6"/>
<path d="M28.3702 193.137C30.461 193.137 32.156 191.498 32.156 189.476C32.156 187.454 30.461 185.814 28.3702 185.814C26.2794 185.814 24.5845 187.454 24.5845 189.476C24.5845 191.498 26.2794 193.137 28.3702 193.137Z" fill="#6C63FF"/>
<path d="M20.0883 210.719C17.1892 206.343 15.0528 201.536 13.7644 196.491C13.4065 195.086 13.1157 193.668 12.8919 192.236C12.8789 192.162 12.8368 192.096 12.7744 192.051C12.7119 192.007 12.634 191.988 12.5571 191.998C12.4803 192.008 12.4104 192.046 12.3623 192.105C12.3142 192.164 12.2916 192.238 12.2993 192.313C13.1179 197.526 14.8168 202.574 17.3282 207.254C18.0304 208.56 18.7933 209.834 19.617 211.074C19.8246 211.387 20.2946 211.03 20.0883 210.719Z" fill="#E6E6E6"/>
<path d="M12.2945 192.88C14.3854 192.88 16.0803 191.241 16.0803 189.219C16.0803 187.197 14.3854 185.557 12.2945 185.557C10.2037 185.557 8.50879 187.197 8.50879 189.219C8.50879 191.241 10.2037 192.88 12.2945 192.88Z" fill="#6C63FF"/>
<path d="M8.46631 213.958V206.764C8.46714 206.049 8.76129 205.363 9.28421 204.858C9.80713 204.352 10.5161 204.067 11.2556 204.066H28.6113C29.3509 204.067 30.0598 204.352 30.5828 204.858C31.1057 205.363 31.3998 206.049 31.4007 206.764V213.958C31.3998 214.673 31.1057 215.359 30.5828 215.865C30.0598 216.371 29.3509 216.655 28.6113 216.656H11.2556C10.5161 216.655 9.80713 216.371 9.28421 215.865C8.76129 215.359 8.46714 214.673 8.46631 213.958Z" fill="#F2F2F2"/>
<path d="M194.885 222.354C194.885 226.297 191.581 228.089 187.504 228.089C183.427 228.089 180.122 226.297 180.122 222.354C180.122 218.411 181.762 213.811 187.504 215.397C193.245 213.017 194.885 218.411 194.885 222.354Z" fill="#FF6584"/>
<path d="M187.144 217.244C186.857 217.245 186.58 217.144 186.364 216.961C186.148 216.778 186.009 216.525 185.972 216.25C185.728 214.282 184.38 210.43 183.813 208.865L183.813 208.864C183.755 208.709 183.737 208.542 183.761 208.378C183.785 208.215 183.849 208.059 183.949 207.925C184.044 207.805 184.165 207.706 184.302 207.634C184.44 207.563 184.592 207.52 184.748 207.509C184.904 207.498 185.06 207.519 185.207 207.571C185.354 207.623 185.488 207.704 185.6 207.81C185.7 207.911 185.777 208.031 185.827 208.163C185.877 208.295 185.899 208.435 185.89 208.575C185.779 210.584 187.293 213.829 188.205 215.586C188.291 215.751 188.335 215.934 188.331 216.12C188.328 216.305 188.278 216.487 188.186 216.649C188.094 216.812 187.962 216.95 187.803 217.053C187.643 217.155 187.46 217.219 187.269 217.238C187.228 217.242 187.186 217.244 187.144 217.244Z" fill="#3F3D56"/>
<path d="M192.606 212.813C195.169 210.785 193.158 206.634 189.951 207.431C189.52 207.53 189.122 207.735 188.796 208.027C186.829 209.824 186.524 214.423 186.524 214.423C186.524 214.423 189.998 214.878 192.606 212.813Z" fill="#3F3D56"/>
</g>
<defs>
<clipPath id="clip0_41_390">
<rect width="406" height="248" fill="white"/>
</clipPath>
</defs>
</svg>
