<svg width="367" height="158" viewBox="0 0 367 158" fill="none" xmlns="http://www.w3.org/2000/svg">
<g clip-path="url(#clip0_41_391)">
<path d="M80.5542 88.1445C80.5576 87.6596 80.4614 87.1791 80.2718 86.7332C80.0821 86.2873 79.803 85.8854 79.4519 85.5528C79.1008 85.2201 78.6853 84.9638 78.2312 84.7998C77.7771 84.6358 77.2943 84.5677 76.8128 84.5997C76.3314 84.6316 75.8617 84.763 75.433 84.9856C75.0043 85.2082 74.6259 85.5172 74.3214 85.8934C74.0169 86.2696 73.7928 86.7048 73.6632 87.1719C73.5335 87.6391 73.5011 88.128 73.5679 88.6083L63.4831 101.882C63.0527 102.747 62.8859 103.721 63.0034 104.68C63.121 105.64 63.5177 106.544 64.1439 107.278L64.935 108.206L68.5648 107.476L72.6787 103.828L72.1946 99.6931L77.2764 91.6667L77.2699 91.661C78.1594 91.604 78.994 91.2088 79.604 90.5557C80.2141 89.9025 80.5538 89.0404 80.5542 88.1445Z" fill="#FFB9B9"/>
<path d="M10.8142 153.038L9.16797 146.893L31.9666 137.587L34.3961 146.657L10.8142 153.038Z" fill="#FFB8B8"/>
<path d="M5.30767 156.209L0 136.395L0.249341 136.328C2.28433 135.777 4.4536 136.061 6.27999 137.118C8.10638 138.175 9.44032 139.918 9.9884 141.963L9.98854 141.964L13.2302 154.065L5.30767 156.209Z" fill="#2F2E41"/>
<path d="M42.2186 152.056L37.0981 148.314L49.0248 126.681L56.5824 132.205L42.2186 152.056Z" fill="#FFB8B8"/>
<path d="M39.915 158L23.4038 145.931L23.5557 145.721C24.7952 144.008 26.661 142.86 28.7426 142.53C30.8243 142.199 32.9513 142.714 34.6558 143.959L34.6562 143.96L44.7406 151.331L39.915 158Z" fill="#2F2E41"/>
<path d="M85.7459 121.826L72.8602 109.245C71.7356 108.147 70.2543 107.494 68.6889 107.406C67.1235 107.318 65.5791 107.801 64.3399 108.767L40.0098 135.933L42.1877 139.338L65.4186 123.529L81.148 144.203L96.1514 136.663L85.7459 121.826Z" fill="#2F2E41"/>
<path d="M80.1803 124.502L70.7426 123.772L63.9079 122.107C63.5219 121.501 62.961 121.029 62.3005 120.753C61.64 120.477 60.9113 120.41 60.212 120.562C59.5127 120.713 58.8762 121.076 58.3876 121.601C57.8991 122.126 57.5818 122.789 57.4783 123.501C57.3749 124.212 57.4901 124.938 57.8086 125.582C58.1271 126.226 58.6338 126.757 59.2606 127.103C59.8875 127.449 60.6047 127.595 61.3162 127.521C62.0278 127.446 62.6996 127.155 63.2419 126.686L63.2409 126.691L67.3548 128.393L85.02 134.474L87.1979 132.771L80.1803 124.502Z" fill="#FFB9B9"/>
<path d="M102.927 150.77L97.6033 154.175H91.3114L62.0309 143.23L19.1987 151.013L17.9888 141.77L57.1912 124.502L91.5537 135.933L102.927 150.77Z" fill="#2F2E41"/>
<path d="M91.5538 91.6667C96.7661 91.6667 100.991 87.4199 100.991 82.1811C100.991 76.9423 96.7661 72.6954 91.5538 72.6954C86.3416 72.6954 82.1162 76.9423 82.1162 82.1811C82.1162 87.4199 86.3416 91.6667 91.5538 91.6667Z" fill="#FFB9B9"/>
<path d="M115.973 120.053C115.973 125.778 115.075 131.467 113.313 136.911L112.607 139.095L109.219 154.661L105.589 155.634L102.927 152.229L97.6032 148.338L93.7314 142.014L90.4113 136.454L89.3756 134.717L85.7457 116.475L71.9523 108.692L67.3545 107.963L68.3224 105.287L72.4363 99.6931L76.5501 99.2066L77.76 98.2337L78.728 98.7202L84.0639 100.786L101.364 93.4398L103.895 93.8557L112.607 101.152C114.834 107.203 115.973 113.602 115.973 120.053Z" fill="#CCCCCC"/>
<path opacity="0.1" d="M113.332 117.935L104.137 124.015L90.4114 136.454L89.3757 134.717L86.4717 120.124H87.1978L94.6995 106.26L113.332 117.935Z" fill="black"/>
<path d="M94.6999 104.801L87.1982 118.664L82.8424 123.529L78.9707 124.502L89.3761 135.933L104.137 122.556L113.333 116.475L94.6999 104.801Z" fill="#CCCCCC"/>
<path d="M84.2131 75.128L83.1906 75.5235C83.0354 75.4178 82.9024 75.2825 82.7992 75.1252C82.696 74.9679 82.6246 74.7917 82.5892 74.6067C82.5537 74.4217 82.5549 74.2315 82.5926 74.0469C82.6303 73.8624 82.7038 73.6871 82.8089 73.531C82.8144 73.5229 82.82 73.5147 82.8257 73.5067L80.936 73.4178C82.149 71.794 83.6913 70.4476 85.4607 69.4678C87.2302 68.4879 89.1865 67.8968 91.2002 67.7336C93.2139 67.5705 95.2391 67.839 97.1419 68.5214C99.0446 69.2038 100.782 70.2845 102.238 71.6921C102.324 71.3943 103.261 71.9737 103.644 72.5612C103.773 72.0766 104.652 74.4192 104.963 76.0752C105.107 75.5238 105.661 76.4139 105.176 77.268C105.483 77.2229 105.622 78.0131 105.384 78.4534C105.72 78.2947 105.664 79.238 105.299 79.8685C105.779 79.8257 105.258 89.7575 98.0586 89.0338C97.5574 86.7191 97.6986 86.8629 97.1084 83.8864C96.8337 83.5934 96.5328 83.3264 96.2325 83.06L94.608 81.6187C92.7191 79.9428 91.0007 77.8744 88.4843 77.2481C86.755 76.8176 85.6615 76.7205 86.6039 74.7619C85.7525 75.119 84.9573 75.6501 84.0982 75.9818C84.1098 75.7081 84.2298 75.4019 84.2131 75.128Z" fill="#2F2E41"/>
<path d="M96.2725 84.9781C97.2081 84.9781 97.9665 84.2159 97.9665 83.2756C97.9665 82.3353 97.2081 81.573 96.2725 81.573C95.337 81.573 94.5786 82.3353 94.5786 83.2756C94.5786 84.2159 95.337 84.9781 96.2725 84.9781Z" fill="#FFB9B9"/>
<path d="M17.2787 43.0647L16.7617 50.8664L24.5239 51.386L25.0408 43.5843L17.2787 43.0647Z" fill="#E6E6E6"/>
<path d="M12.2703 47.2074L21.6957 47.8383L21.068 57.3117L11.6426 56.6808L12.2703 47.2074ZM21.2586 48.2227L12.6528 47.6467L12.0797 56.2963L20.6855 56.8724L21.2586 48.2227Z" fill="#CCCCCC"/>
<path d="M61.1433 19.9304L53.5376 21.573L55.1718 29.2174L62.7776 27.5749L61.1433 19.9304Z" fill="#E6E6E6"/>
<path d="M55.8054 16.2277L57.7898 25.5103L48.5543 27.5048L46.5698 18.2222L55.8054 16.2277ZM57.302 25.1934L55.4901 16.718L47.0576 18.5391L48.8695 27.0145L57.302 25.1934Z" fill="#CCCCCC"/>
<path d="M53.1518 56.6419L47.4741 61.9871L52.7922 67.6937L58.4699 62.3485L53.1518 56.6419Z" fill="#E6E6E6"/>
<path d="M58.8783 55.8423L51.9841 62.3329L45.5264 55.4035L52.4207 48.9129L58.8783 55.8423ZM52.003 61.7494L58.2978 55.8232L52.4017 49.4964L46.1069 55.4226L52.003 61.7494Z" fill="#CCCCCC"/>
<path d="M346.766 0H116.597C115.765 -9.50294e-07 114.942 0.164698 114.173 0.484694C113.404 0.80469 112.706 1.27371 112.118 1.86499C111.529 2.45626 111.063 3.15821 110.744 3.93075C110.426 4.70329 110.262 5.53129 110.262 6.36748V135.267C110.262 136.103 110.426 136.931 110.744 137.703C111.063 138.476 111.529 139.178 112.118 139.769C112.706 140.36 113.404 140.829 114.173 141.149C114.942 141.469 115.765 141.634 116.597 141.634H346.766C348.446 141.634 350.058 140.963 351.246 139.769C352.434 138.575 353.101 136.955 353.101 135.267V6.36748C353.101 4.67872 352.434 3.05913 351.246 1.86499C350.058 0.670859 348.446 9.59606e-07 346.766 0Z" fill="#3F3D56"/>
<path d="M344.608 11.2531H118.756V139.306H344.608V11.2531Z" fill="white"/>
<path d="M231.489 7.76077C232.768 7.76077 233.805 6.71838 233.805 5.43254C233.805 4.14669 232.768 3.10431 231.489 3.10431C230.209 3.10431 229.172 4.14669 229.172 5.43254C229.172 6.71838 230.209 7.76077 231.489 7.76077Z" fill="white"/>
<path d="M280.018 139.306H118.756V11.2533L280.018 139.306Z" fill="#F2F2F2"/>
<path d="M154.095 129.724C166.085 129.724 175.804 119.954 175.804 107.903C175.804 95.8525 166.085 86.0833 154.095 86.0833C142.105 86.0833 132.385 95.8525 132.385 107.903C132.385 119.954 142.105 129.724 154.095 129.724Z" fill="#6C63FF"/>
<path d="M158.927 124.303C153.586 124.303 148.365 122.712 143.925 119.729C139.484 116.747 136.022 112.508 133.978 107.548C131.935 102.589 131.4 97.1311 132.442 91.8661C133.484 86.601 136.056 81.7647 139.832 77.9688C143.609 74.1729 148.421 71.5879 153.659 70.5406C158.898 69.4933 164.327 70.0308 169.262 72.0851C174.196 74.1395 178.414 77.6184 181.381 82.0819C184.348 86.5454 185.932 91.793 185.932 97.1613C185.932 100.726 185.234 104.255 183.877 107.548C182.519 110.841 180.53 113.833 178.023 116.354C175.515 118.874 172.538 120.873 169.262 122.237C165.985 123.601 162.474 124.303 158.927 124.303ZM158.927 70.3738C153.656 70.3738 148.503 71.9449 144.121 74.8883C139.738 77.8318 136.322 82.0154 134.305 86.9101C132.287 91.8049 131.76 97.1909 132.788 102.387C133.816 107.583 136.355 112.356 140.082 116.103C143.809 119.849 148.558 122.4 153.728 123.434C158.898 124.468 164.257 123.937 169.127 121.91C173.997 119.882 178.159 116.449 181.087 112.044C184.016 107.638 185.579 102.459 185.579 97.1613C185.579 93.6435 184.89 90.1602 183.55 86.9102C182.211 83.6602 180.248 80.7071 177.773 78.2197C175.298 75.7323 172.36 73.7591 169.127 72.4129C165.893 71.0667 162.427 70.3738 158.927 70.3738Z" fill="#3F3D56"/>
<path d="M292.324 77.7803H271.227V82.2111H292.324V77.7803Z" fill="#3F3D56"/>
<path d="M312.284 53.7762H251.267V55.6751H312.284V53.7762Z" fill="#3F3D56"/>
<path d="M312.284 61.2366H251.267V63.1355H312.284V61.2366Z" fill="#3F3D56"/>
<path d="M312.284 68.6971H251.267V70.5961H312.284V68.6971Z" fill="#3F3D56"/>
<path d="M328.629 18.9165H319.812V27.7781H328.629V18.9165Z" fill="#6C63FF"/>
<path d="M332.722 31.8925H322.016V21.1319H332.722V31.8925ZM322.482 31.4246H332.257V21.5998H322.482L322.482 31.4246Z" fill="#CCCCCC"/>
<path d="M359.443 136.978H337.401V135.381C337.401 135.34 337.393 135.299 337.377 135.26C337.361 135.222 337.338 135.187 337.309 135.158C337.28 135.128 337.245 135.105 337.207 135.089C337.169 135.073 337.128 135.065 337.086 135.065H329.529C329.488 135.065 329.447 135.073 329.409 135.089C329.37 135.105 329.336 135.128 329.306 135.158C329.277 135.187 329.254 135.222 329.238 135.26C329.222 135.299 329.214 135.34 329.214 135.381V136.978H324.491V135.381C324.491 135.34 324.483 135.299 324.467 135.26C324.451 135.222 324.428 135.187 324.399 135.158C324.37 135.128 324.335 135.105 324.297 135.089C324.258 135.073 324.217 135.065 324.176 135.065H316.619C316.578 135.065 316.537 135.073 316.498 135.089C316.46 135.105 316.426 135.128 316.396 135.158C316.367 135.187 316.344 135.222 316.328 135.26C316.312 135.299 316.304 135.34 316.304 135.381V136.978H311.581V135.381C311.581 135.34 311.573 135.299 311.557 135.26C311.541 135.222 311.518 135.187 311.489 135.158C311.459 135.128 311.425 135.105 311.387 135.089C311.348 135.073 311.307 135.065 311.266 135.065H303.709C303.667 135.065 303.627 135.073 303.588 135.089C303.55 135.105 303.515 135.128 303.486 135.158C303.457 135.187 303.434 135.222 303.418 135.26C303.402 135.299 303.394 135.34 303.394 135.381V136.978H298.671V135.381C298.671 135.34 298.663 135.299 298.647 135.26C298.631 135.222 298.608 135.187 298.579 135.158C298.549 135.128 298.515 135.105 298.476 135.089C298.438 135.073 298.397 135.065 298.356 135.065H290.799C290.757 135.065 290.716 135.073 290.678 135.089C290.64 135.105 290.605 135.128 290.576 135.158C290.547 135.187 290.524 135.222 290.508 135.26C290.492 135.299 290.484 135.34 290.484 135.381V136.978H285.761V135.381C285.761 135.34 285.752 135.299 285.737 135.26C285.721 135.222 285.698 135.187 285.668 135.158C285.639 135.128 285.604 135.105 285.566 135.089C285.528 135.073 285.487 135.065 285.446 135.065H277.889C277.847 135.065 277.806 135.073 277.768 135.089C277.73 135.105 277.695 135.128 277.666 135.158C277.637 135.187 277.613 135.222 277.598 135.26C277.582 135.299 277.574 135.34 277.574 135.381V136.978H272.85V135.381C272.85 135.34 272.842 135.299 272.827 135.26C272.811 135.222 272.787 135.187 272.758 135.158C272.729 135.128 272.694 135.105 272.656 135.089C272.618 135.073 272.577 135.065 272.536 135.065H264.978C264.937 135.065 264.896 135.073 264.858 135.089C264.82 135.105 264.785 135.128 264.756 135.158C264.727 135.187 264.703 135.222 264.688 135.26C264.672 135.299 264.664 135.34 264.664 135.381V136.978H259.94V135.381C259.94 135.34 259.932 135.299 259.916 135.26C259.901 135.222 259.877 135.187 259.848 135.158C259.819 135.128 259.784 135.105 259.746 135.089C259.708 135.073 259.667 135.065 259.625 135.065H200.428C200.386 135.065 200.345 135.073 200.307 135.089C200.269 135.105 200.234 135.128 200.205 135.158C200.176 135.187 200.153 135.222 200.137 135.26C200.121 135.299 200.113 135.34 200.113 135.381V136.978H195.39V135.381C195.39 135.34 195.382 135.299 195.366 135.26C195.35 135.222 195.327 135.187 195.297 135.158C195.268 135.128 195.233 135.105 195.195 135.089C195.157 135.073 195.116 135.065 195.075 135.065H187.518C187.476 135.065 187.435 135.073 187.397 135.089C187.359 135.105 187.324 135.128 187.295 135.158C187.266 135.187 187.243 135.222 187.227 135.26C187.211 135.299 187.203 135.34 187.203 135.381V136.978H182.48V135.381C182.48 135.34 182.471 135.299 182.456 135.26C182.44 135.222 182.417 135.187 182.387 135.158C182.358 135.128 182.323 135.105 182.285 135.089C182.247 135.073 182.206 135.065 182.165 135.065H174.607C174.566 135.065 174.525 135.073 174.487 135.089C174.449 135.105 174.414 135.128 174.385 135.158C174.356 135.187 174.332 135.222 174.317 135.26C174.301 135.299 174.293 135.34 174.293 135.381V136.978H169.569V135.381C169.569 135.34 169.561 135.299 169.545 135.26C169.53 135.222 169.506 135.187 169.477 135.158C169.448 135.128 169.413 135.105 169.375 135.089C169.337 135.073 169.296 135.065 169.255 135.065H161.697C161.656 135.065 161.615 135.073 161.577 135.089C161.539 135.105 161.504 135.128 161.475 135.158C161.445 135.187 161.422 135.222 161.406 135.26C161.391 135.299 161.382 135.34 161.382 135.381V136.978H156.659V135.381C156.659 135.34 156.651 135.299 156.635 135.26C156.619 135.222 156.596 135.187 156.567 135.158C156.538 135.128 156.503 135.105 156.465 135.089C156.427 135.073 156.386 135.065 156.344 135.065H148.787C148.746 135.065 148.705 135.073 148.667 135.089C148.629 135.105 148.594 135.128 148.565 135.158C148.535 135.187 148.512 135.222 148.496 135.26C148.48 135.299 148.472 135.34 148.472 135.381V136.978H143.749V135.381C143.749 135.34 143.741 135.299 143.725 135.26C143.709 135.222 143.686 135.187 143.657 135.158C143.628 135.128 143.593 135.105 143.555 135.089C143.517 135.073 143.476 135.065 143.434 135.065H135.877C135.794 135.065 135.713 135.098 135.654 135.158C135.595 135.217 135.562 135.298 135.562 135.381V136.978H130.839V135.381C130.839 135.34 130.831 135.299 130.815 135.26C130.799 135.222 130.776 135.187 130.747 135.158C130.718 135.128 130.683 135.105 130.645 135.089C130.606 135.073 130.565 135.065 130.524 135.065H122.967C122.883 135.065 122.803 135.098 122.744 135.158C122.685 135.217 122.652 135.298 122.652 135.381V136.978H108.167C106.163 136.978 104.241 137.778 102.824 139.202C101.407 140.627 100.61 142.559 100.61 144.573V148.008C100.61 150.022 101.407 151.954 102.824 153.379C104.241 154.803 106.163 155.604 108.167 155.604H359.443C361.447 155.604 363.369 154.803 364.787 153.379C366.204 151.954 367 150.022 367 148.008V144.573C367 143.576 366.805 142.588 366.425 141.667C366.045 140.745 365.488 139.908 364.787 139.202C364.085 138.497 363.252 137.938 362.335 137.556C361.418 137.174 360.435 136.978 359.443 136.978Z" fill="#3F3D56"/>
</g>
<defs>
<clipPath id="clip0_41_391">
<rect width="367" height="158" fill="white"/>
</clipPath>
</defs>
</svg>
