<svg width="313" height="227" viewBox="0 0 313 227" fill="none" xmlns="http://www.w3.org/2000/svg">
<g clip-path="url(#clip0_41_392)">
<path d="M182.322 40.0175C188.188 40.0175 192.944 35.2755 192.944 29.4259C192.944 23.5764 188.188 18.8344 182.322 18.8344C176.456 18.8344 171.7 23.5764 171.7 29.4259C171.7 35.2755 176.456 40.0175 182.322 40.0175Z" fill="#F2F2F2"/>
<path d="M264.717 197.207C280.505 185.216 288.046 165.067 283.325 145.845C283.208 145.368 283.084 144.891 282.954 144.416C279.824 133.006 272.081 122.162 260.796 118.516C251.321 115.455 240.978 117.809 231.092 116.592C211.687 114.202 196.642 98.5454 186.057 82.1527C175.471 65.76 167.335 47.4107 153.269 33.8679C130.083 11.5449 92.261 6.73874 63.5138 21.2693C34.7667 35.8 16.455 68.0374 17.2359 100.166C18.0169 132.295 37.1446 163.012 64.9226 179.309C75.1272 185.296 86.9297 189.538 98.6756 188.053C108.867 186.766 118.128 181.305 128.272 179.684C144.22 177.135 160.067 184.325 173.861 192.704C187.655 201.083 200.979 211.015 216.655 214.899C231.875 218.671 250.732 207.83 264.717 197.207Z" fill="#F2F2F2"/>
<path d="M242.034 21.944C241.688 21.7139 241.338 21.4958 240.992 21.2736C230.987 14.8934 220.264 9.71021 209.044 5.83108L206.442 41.619H189.949V0.606881C188.911 0.392677 187.865 0.190373 186.819 -3.05176e-05V41.619H167.219C156.429 41.619 146.081 37.3449 138.451 29.737C130.822 22.1291 126.536 11.8105 126.536 1.0512C125.485 1.27731 124.443 1.51924 123.401 1.77708V41.6191H107.437L104.959 7.49315C93.4282 11.9027 82.4817 17.7015 72.3626 24.7604C72.1876 24.8794 72.0126 25.0024 71.8415 25.1214C70.9624 25.7362 70.0952 26.363 69.2319 26.9976V163.529H116.28L115.449 152.045L110.874 88.9939H203.001L198.427 152.045L197.595 163.529H244.122V23.3244C243.43 22.8564 242.734 22.3962 242.034 21.944ZM123.401 78.5812H110.118L107.664 44.7448H123.401V78.5812ZM186.819 78.5812H164.51V77.9108C164.51 77.5885 164.446 77.2694 164.322 76.9717C164.199 76.674 164.017 76.4036 163.789 76.1759C163.56 75.9482 163.288 75.7677 162.99 75.6448C162.691 75.5218 162.371 75.4588 162.048 75.4593H152.349C152.026 75.4592 151.706 75.5225 151.408 75.6457C151.11 75.7688 150.839 75.9494 150.61 76.1771C150.382 76.4047 150.201 76.675 150.078 76.9725C149.954 77.27 149.891 77.5888 149.891 77.9108V78.5812H126.536V44.7448H186.819V78.5812ZM189.95 78.5812V44.7448H206.216L203.761 78.5812H189.95Z" fill="#3F3D56"/>
<path d="M0 172.272C3.45582 176.355 7.19369 180.192 11.1862 183.756L301.814 184.152C305.806 180.589 309.544 176.752 313 172.669L0 172.272Z" fill="#3F3D56"/>
<path d="M197.084 135.501V169.497C197.084 169.93 197.257 170.346 197.564 170.652C197.872 170.958 198.288 171.131 198.723 171.131H249.245C249.68 171.131 250.096 170.958 250.404 170.652C250.711 170.346 250.884 169.93 250.884 169.497V135.501C250.883 135.068 250.71 134.653 250.403 134.347C250.096 134.041 249.68 133.869 249.245 133.868H198.723C198.288 133.869 197.872 134.041 197.565 134.347C197.258 134.653 197.085 135.068 197.084 135.501Z" fill="#3F3D56"/>
<path d="M198.269 135.924V169.078C198.269 169.309 198.362 169.531 198.526 169.695C198.69 169.858 198.913 169.951 199.145 169.951H248.825C249.057 169.951 249.279 169.858 249.443 169.695C249.608 169.531 249.7 169.309 249.7 169.078V135.924C249.7 135.692 249.608 135.469 249.444 135.305C249.28 135.141 249.057 135.049 248.825 135.048H199.145C198.912 135.049 198.69 135.141 198.525 135.305C198.361 135.469 198.269 135.692 198.269 135.924Z" fill="#6C63FF"/>
<path d="M196.027 176.127C196.12 176.243 196.237 176.336 196.371 176.4C196.505 176.464 196.652 176.497 196.8 176.496H250.898C251.046 176.496 251.192 176.463 251.326 176.399C251.459 176.336 251.577 176.243 251.67 176.129C251.763 176.014 251.83 175.88 251.865 175.737C251.899 175.594 251.902 175.444 251.871 175.3L251.032 171.322C250.997 171.16 250.922 171.009 250.814 170.883C250.705 170.757 250.567 170.66 250.412 170.601C250.299 170.557 250.179 170.535 250.059 170.535H197.637C197.516 170.535 197.396 170.557 197.283 170.601C197.128 170.66 196.99 170.757 196.882 170.883C196.773 171.009 196.698 171.16 196.664 171.322L195.824 175.3C195.794 175.444 195.797 175.593 195.832 175.737C195.867 175.88 195.934 176.013 196.027 176.127Z" fill="#2F2E41"/>
<path d="M248.202 172.248H249.48C249.587 172.248 249.674 172.161 249.674 172.054V171.445C249.674 171.338 249.587 171.251 249.48 171.251H248.202C248.095 171.251 248.008 171.338 248.008 171.445V172.054C248.008 172.161 248.095 172.248 248.202 172.248Z" fill="#3F3D56"/>
<path d="M244.87 172.248H246.148C246.255 172.248 246.342 172.161 246.342 172.054V171.445C246.342 171.338 246.255 171.251 246.148 171.251H244.87C244.763 171.251 244.676 171.338 244.676 171.445V172.054C244.676 172.161 244.763 172.248 244.87 172.248Z" fill="#3F3D56"/>
<path d="M241.538 172.248H242.816C242.923 172.248 243.01 172.161 243.01 172.054V171.445C243.01 171.338 242.923 171.251 242.816 171.251H241.538C241.431 171.251 241.344 171.338 241.344 171.445V172.054C241.344 172.161 241.431 172.248 241.538 172.248Z" fill="#3F3D56"/>
<path d="M238.205 172.248H239.483C239.59 172.248 239.677 172.161 239.677 172.054V171.445C239.677 171.338 239.59 171.251 239.483 171.251H238.205C238.098 171.251 238.011 171.338 238.011 171.445V172.054C238.011 172.161 238.098 172.248 238.205 172.248Z" fill="#3F3D56"/>
<path d="M234.873 172.248H236.151C236.258 172.248 236.345 172.161 236.345 172.054V171.445C236.345 171.338 236.258 171.251 236.151 171.251H234.873C234.765 171.251 234.679 171.338 234.679 171.445V172.054C234.679 172.161 234.765 172.248 234.873 172.248Z" fill="#3F3D56"/>
<path d="M231.541 172.248H232.818C232.926 172.248 233.013 172.161 233.013 172.054V171.445C233.013 171.338 232.926 171.251 232.818 171.251H231.541C231.433 171.251 231.347 171.338 231.347 171.445V172.054C231.347 172.161 231.433 172.248 231.541 172.248Z" fill="#3F3D56"/>
<path d="M228.208 172.248H229.486C229.593 172.248 229.68 172.161 229.68 172.054V171.445C229.68 171.338 229.593 171.251 229.486 171.251H228.208C228.101 171.251 228.014 171.338 228.014 171.445V172.054C228.014 172.161 228.101 172.248 228.208 172.248Z" fill="#3F3D56"/>
<path d="M224.876 172.248H226.153C226.261 172.248 226.348 172.161 226.348 172.054V171.445C226.348 171.338 226.261 171.251 226.153 171.251H224.876C224.768 171.251 224.681 171.338 224.681 171.445V172.054C224.681 172.161 224.768 172.248 224.876 172.248Z" fill="#3F3D56"/>
<path d="M221.543 172.248H222.821C222.928 172.248 223.015 172.161 223.015 172.054V171.445C223.015 171.338 222.928 171.251 222.821 171.251H221.543C221.436 171.251 221.349 171.338 221.349 171.445V172.054C221.349 172.161 221.436 172.248 221.543 172.248Z" fill="#3F3D56"/>
<path d="M218.211 172.248H219.489C219.596 172.248 219.683 172.161 219.683 172.054V171.445C219.683 171.338 219.596 171.251 219.489 171.251H218.211C218.104 171.251 218.017 171.338 218.017 171.445V172.054C218.017 172.161 218.104 172.248 218.211 172.248Z" fill="#3F3D56"/>
<path d="M214.879 172.248H216.156C216.264 172.248 216.351 172.161 216.351 172.054V171.445C216.351 171.338 216.264 171.251 216.156 171.251H214.879C214.771 171.251 214.684 171.338 214.684 171.445V172.054C214.684 172.161 214.771 172.248 214.879 172.248Z" fill="#3F3D56"/>
<path d="M211.546 172.248H212.824C212.931 172.248 213.018 172.161 213.018 172.054V171.445C213.018 171.338 212.931 171.251 212.824 171.251H211.546C211.439 171.251 211.352 171.338 211.352 171.445V172.054C211.352 172.161 211.439 172.248 211.546 172.248Z" fill="#3F3D56"/>
<path d="M208.214 172.248H209.491C209.599 172.248 209.686 172.161 209.686 172.054V171.445C209.686 171.338 209.599 171.251 209.491 171.251H208.214C208.106 171.251 208.019 171.338 208.019 171.445V172.054C208.019 172.161 208.106 172.248 208.214 172.248Z" fill="#3F3D56"/>
<path d="M204.882 172.248H206.159C206.267 172.248 206.354 172.161 206.354 172.054V171.445C206.354 171.338 206.267 171.251 206.159 171.251H204.882C204.774 171.251 204.687 171.338 204.687 171.445V172.054C204.687 172.161 204.774 172.248 204.882 172.248Z" fill="#3F3D56"/>
<path d="M201.549 172.248H202.827C202.934 172.248 203.021 172.161 203.021 172.054V171.445C203.021 171.338 202.934 171.251 202.827 171.251H201.549C201.442 171.251 201.355 171.338 201.355 171.445V172.054C201.355 172.161 201.442 172.248 201.549 172.248Z" fill="#3F3D56"/>
<path d="M198.217 172.248H199.494C199.602 172.248 199.688 172.161 199.688 172.054V171.445C199.688 171.338 199.602 171.251 199.494 171.251H198.217C198.109 171.251 198.022 171.338 198.022 171.445V172.054C198.022 172.161 198.109 172.248 198.217 172.248Z" fill="#3F3D56"/>
<path d="M248.242 173.91H249.52C249.627 173.91 249.714 173.823 249.714 173.716V173.106C249.714 172.999 249.627 172.913 249.52 172.913H248.242C248.135 172.913 248.048 172.999 248.048 173.106V173.716C248.048 173.823 248.135 173.91 248.242 173.91Z" fill="#3F3D56"/>
<path d="M244.909 173.91H246.187C246.294 173.91 246.381 173.823 246.381 173.716V173.106C246.381 172.999 246.294 172.913 246.187 172.913H244.909C244.802 172.913 244.715 172.999 244.715 173.106V173.716C244.715 173.823 244.802 173.91 244.909 173.91Z" fill="#3F3D56"/>
<path d="M241.577 173.91H242.855C242.962 173.91 243.049 173.823 243.049 173.716V173.106C243.049 172.999 242.962 172.913 242.855 172.913H241.577C241.47 172.913 241.383 172.999 241.383 173.106V173.716C241.383 173.823 241.47 173.91 241.577 173.91Z" fill="#3F3D56"/>
<path d="M238.245 173.91H239.523C239.63 173.91 239.717 173.823 239.717 173.716V173.106C239.717 172.999 239.63 172.913 239.523 172.913H238.245C238.138 172.913 238.051 172.999 238.051 173.106V173.716C238.051 173.823 238.138 173.91 238.245 173.91Z" fill="#3F3D56"/>
<path d="M234.912 173.91H236.19C236.297 173.91 236.384 173.823 236.384 173.716V173.106C236.384 172.999 236.297 172.913 236.19 172.913H234.912C234.805 172.913 234.718 172.999 234.718 173.106V173.716C234.718 173.823 234.805 173.91 234.912 173.91Z" fill="#3F3D56"/>
<path d="M231.58 173.91H232.858C232.965 173.91 233.052 173.823 233.052 173.716V173.106C233.052 172.999 232.965 172.913 232.858 172.913H231.58C231.473 172.913 231.386 172.999 231.386 173.106V173.716C231.386 173.823 231.473 173.91 231.58 173.91Z" fill="#3F3D56"/>
<path d="M228.248 173.91H229.526C229.633 173.91 229.72 173.823 229.72 173.716V173.106C229.72 172.999 229.633 172.913 229.526 172.913H228.248C228.14 172.913 228.054 172.999 228.054 173.106V173.716C228.054 173.823 228.14 173.91 228.248 173.91Z" fill="#3F3D56"/>
<path d="M224.915 173.91H226.193C226.3 173.91 226.387 173.823 226.387 173.716V173.106C226.387 172.999 226.3 172.913 226.193 172.913H224.915C224.808 172.913 224.721 172.999 224.721 173.106V173.716C224.721 173.823 224.808 173.91 224.915 173.91Z" fill="#3F3D56"/>
<path d="M221.583 173.91H222.86C222.968 173.91 223.055 173.823 223.055 173.716V173.106C223.055 172.999 222.968 172.913 222.86 172.913H221.583C221.475 172.913 221.388 172.999 221.388 173.106V173.716C221.388 173.823 221.475 173.91 221.583 173.91Z" fill="#3F3D56"/>
<path d="M218.25 173.91H219.528C219.635 173.91 219.722 173.823 219.722 173.716V173.106C219.722 172.999 219.635 172.913 219.528 172.913H218.25C218.143 172.913 218.056 172.999 218.056 173.106V173.716C218.056 173.823 218.143 173.91 218.25 173.91Z" fill="#3F3D56"/>
<path d="M214.918 173.91H216.196C216.303 173.91 216.39 173.823 216.39 173.716V173.106C216.39 172.999 216.303 172.913 216.196 172.913H214.918C214.811 172.913 214.724 172.999 214.724 173.106V173.716C214.724 173.823 214.811 173.91 214.918 173.91Z" fill="#3F3D56"/>
<path d="M211.586 173.91H212.863C212.971 173.91 213.058 173.823 213.058 173.716V173.106C213.058 172.999 212.971 172.913 212.863 172.913H211.586C211.478 172.913 211.391 172.999 211.391 173.106V173.716C211.391 173.823 211.478 173.91 211.586 173.91Z" fill="#3F3D56"/>
<path d="M208.253 173.91H209.531C209.638 173.91 209.725 173.823 209.725 173.716V173.106C209.725 172.999 209.638 172.913 209.531 172.913H208.253C208.146 172.913 208.059 172.999 208.059 173.106V173.716C208.059 173.823 208.146 173.91 208.253 173.91Z" fill="#3F3D56"/>
<path d="M204.921 173.91H206.198C206.306 173.91 206.393 173.823 206.393 173.716V173.106C206.393 172.999 206.306 172.913 206.198 172.913H204.921C204.813 172.913 204.726 172.999 204.726 173.106V173.716C204.726 173.823 204.813 173.91 204.921 173.91Z" fill="#3F3D56"/>
<path d="M201.589 173.91H202.866C202.974 173.91 203.061 173.823 203.061 173.716V173.106C203.061 172.999 202.974 172.913 202.866 172.913H201.589C201.481 172.913 201.394 172.999 201.394 173.106V173.716C201.394 173.823 201.481 173.91 201.589 173.91Z" fill="#3F3D56"/>
<path d="M198.256 173.91H199.534C199.641 173.91 199.728 173.823 199.728 173.716V173.106C199.728 172.999 199.641 172.913 199.534 172.913H198.256C198.149 172.913 198.062 172.999 198.062 173.106V173.716C198.062 173.823 198.149 173.91 198.256 173.91Z" fill="#3F3D56"/>
<path d="M220.583 175.903H233.524C233.631 175.903 233.718 175.817 233.718 175.71V175.1C233.718 174.993 233.631 174.906 233.524 174.906H220.583C220.476 174.906 220.389 174.993 220.389 175.1V175.71C220.389 175.817 220.476 175.903 220.583 175.903Z" fill="#3F3D56"/>
<path d="M206.872 142.302H205.741C205.398 142.302 205.12 142.579 205.12 142.921C205.12 143.263 205.398 143.54 205.741 143.54H206.872C207.215 143.54 207.493 143.263 207.493 142.921C207.493 142.579 207.215 142.302 206.872 142.302Z" fill="white"/>
<path d="M219.81 142.302H218.679C218.336 142.302 218.058 142.579 218.058 142.921C218.058 143.263 218.336 143.54 218.679 143.54H219.81C220.153 143.54 220.431 143.263 220.431 142.921C220.431 142.579 220.153 142.302 219.81 142.302Z" fill="white"/>
<path d="M223.476 142.302H222.345C222.002 142.302 221.724 142.579 221.724 142.921C221.724 143.263 222.002 143.54 222.345 143.54H223.476C223.819 143.54 224.097 143.263 224.097 142.921C224.097 142.579 223.819 142.302 223.476 142.302Z" fill="white"/>
<path d="M216.291 142.199H209.26C208.917 142.199 208.639 142.476 208.639 142.818C208.639 143.16 208.917 143.437 209.26 143.437H216.291C216.634 143.437 216.912 143.16 216.912 142.818C216.912 142.476 216.634 142.199 216.291 142.199Z" fill="white"/>
<path d="M233.541 142.199H226.511C226.168 142.199 225.89 142.476 225.89 142.818C225.89 143.16 226.168 143.437 226.511 143.437H233.541C233.884 143.437 234.162 143.16 234.162 142.818C234.162 142.476 233.884 142.199 233.541 142.199Z" fill="white"/>
<path d="M210.323 145.097H209.191C208.848 145.097 208.57 145.374 208.57 145.716C208.57 146.058 208.848 146.336 209.191 146.336H210.323C210.666 146.336 210.944 146.058 210.944 145.716C210.944 145.374 210.666 145.097 210.323 145.097Z" fill="white"/>
<path d="M223.26 145.097H222.129C221.786 145.097 221.508 145.374 221.508 145.716C221.508 146.058 221.786 146.336 222.129 146.336H223.26C223.603 146.336 223.881 146.058 223.881 145.716C223.881 145.374 223.603 145.097 223.26 145.097Z" fill="white"/>
<path d="M226.926 145.097H225.795C225.452 145.097 225.174 145.374 225.174 145.716C225.174 146.058 225.452 146.336 225.795 146.336H226.926C227.269 146.336 227.547 146.058 227.547 145.716C227.547 145.374 227.269 145.097 226.926 145.097Z" fill="white"/>
<path d="M219.741 144.994H212.71C212.367 144.994 212.089 145.271 212.089 145.613C212.089 145.955 212.367 146.232 212.71 146.232H219.741C220.084 146.232 220.362 145.955 220.362 145.613C220.362 145.271 220.084 144.994 219.741 144.994Z" fill="white"/>
<path d="M236.991 144.994H229.96C229.617 144.994 229.339 145.271 229.339 145.613C229.339 145.955 229.617 146.232 229.96 146.232H236.991C237.334 146.232 237.612 145.955 237.612 145.613C237.612 145.271 237.334 144.994 236.991 144.994Z" fill="white"/>
<path d="M213.772 147.892H212.641C212.298 147.892 212.02 148.17 212.02 148.512C212.02 148.854 212.298 149.131 212.641 149.131H213.772C214.115 149.131 214.393 148.854 214.393 148.512C214.393 148.17 214.115 147.892 213.772 147.892Z" fill="white"/>
<path d="M226.71 147.892H225.579C225.236 147.892 224.958 148.17 224.958 148.512C224.958 148.854 225.236 149.131 225.579 149.131H226.71C227.053 149.131 227.331 148.854 227.331 148.512C227.331 148.17 227.053 147.892 226.71 147.892Z" fill="white"/>
<path d="M230.376 147.892H229.245C228.902 147.892 228.624 148.17 228.624 148.512C228.624 148.854 228.902 149.131 229.245 149.131H230.376C230.719 149.131 230.997 148.854 230.997 148.512C230.997 148.17 230.719 147.892 230.376 147.892Z" fill="white"/>
<path d="M223.191 147.789H216.16C215.817 147.789 215.539 148.066 215.539 148.408C215.539 148.75 215.817 149.027 216.16 149.027H223.191C223.534 149.027 223.812 148.75 223.812 148.408C223.812 148.066 223.534 147.789 223.191 147.789Z" fill="white"/>
<path d="M240.441 147.789H233.411C233.068 147.789 232.79 148.066 232.79 148.408C232.79 148.75 233.068 149.027 233.411 149.027H240.441C240.784 149.027 241.062 148.75 241.062 148.408C241.062 148.066 240.784 147.789 240.441 147.789Z" fill="white"/>
<path d="M217.222 150.688H216.091C215.748 150.688 215.47 150.965 215.47 151.307C215.47 151.649 215.748 151.926 216.091 151.926H217.222C217.565 151.926 217.843 151.649 217.843 151.307C217.843 150.965 217.565 150.688 217.222 150.688Z" fill="white"/>
<path d="M230.16 150.688H229.029C228.686 150.688 228.408 150.965 228.408 151.307C228.408 151.649 228.686 151.926 229.029 151.926H230.16C230.503 151.926 230.781 151.649 230.781 151.307C230.781 150.965 230.503 150.688 230.16 150.688Z" fill="white"/>
<path d="M233.826 150.688H232.695C232.352 150.688 232.074 150.965 232.074 151.307C232.074 151.649 232.352 151.926 232.695 151.926H233.826C234.169 151.926 234.447 151.649 234.447 151.307C234.447 150.965 234.169 150.688 233.826 150.688Z" fill="white"/>
<path d="M226.641 150.584H219.61C219.267 150.584 218.989 150.861 218.989 151.203C218.989 151.545 219.267 151.823 219.61 151.823H226.641C226.984 151.823 227.262 151.545 227.262 151.203C227.262 150.861 226.984 150.584 226.641 150.584Z" fill="white"/>
<path d="M219.81 161.802H218.679C218.336 161.802 218.058 162.08 218.058 162.422C218.058 162.764 218.336 163.041 218.679 163.041H219.81C220.153 163.041 220.431 162.764 220.431 162.422C220.431 162.08 220.153 161.802 219.81 161.802Z" fill="white"/>
<path d="M223.476 161.802H222.345C222.002 161.802 221.724 162.08 221.724 162.422C221.724 162.764 222.002 163.041 222.345 163.041H223.476C223.819 163.041 224.097 162.764 224.097 162.422C224.097 162.08 223.819 161.802 223.476 161.802Z" fill="white"/>
<path d="M233.541 161.906H226.511C226.168 161.906 225.89 162.183 225.89 162.525C225.89 162.867 226.168 163.144 226.511 163.144H233.541C233.884 163.144 234.162 162.867 234.162 162.525C234.162 162.183 233.884 161.906 233.541 161.906Z" fill="white"/>
<path d="M206.872 161.802H205.741C205.398 161.802 205.12 162.08 205.12 162.422C205.12 162.764 205.398 163.041 205.741 163.041H206.872C207.215 163.041 207.493 162.764 207.493 162.422C207.493 162.08 207.215 161.802 206.872 161.802Z" fill="white"/>
<path d="M216.291 161.906H209.26C208.917 161.906 208.639 162.183 208.639 162.525C208.639 162.867 208.917 163.144 209.26 163.144H216.291C216.634 163.144 216.912 162.867 216.912 162.525C216.912 162.183 216.634 161.906 216.291 161.906Z" fill="white"/>
<path d="M210.323 159.007H209.191C208.848 159.007 208.57 159.285 208.57 159.626C208.57 159.968 208.848 160.246 209.191 160.246H210.323C210.666 160.246 210.944 159.968 210.944 159.626C210.944 159.285 210.666 159.007 210.323 159.007Z" fill="white"/>
<path d="M223.26 159.007H222.129C221.786 159.007 221.508 159.285 221.508 159.626C221.508 159.968 221.786 160.246 222.129 160.246H223.26C223.603 160.246 223.881 159.968 223.881 159.626C223.881 159.285 223.603 159.007 223.26 159.007Z" fill="white"/>
<path d="M226.926 159.007H225.795C225.452 159.007 225.174 159.285 225.174 159.626C225.174 159.968 225.452 160.246 225.795 160.246H226.926C227.269 160.246 227.547 159.968 227.547 159.626C227.547 159.285 227.269 159.007 226.926 159.007Z" fill="white"/>
<path d="M219.741 159.111H212.71C212.367 159.111 212.089 159.388 212.089 159.73C212.089 160.072 212.367 160.349 212.71 160.349H219.741C220.084 160.349 220.362 160.072 220.362 159.73C220.362 159.388 220.084 159.111 219.741 159.111Z" fill="white"/>
<path d="M213.772 156.212H212.641C212.298 156.212 212.02 156.489 212.02 156.831C212.02 157.173 212.298 157.451 212.641 157.451H213.772C214.115 157.451 214.393 157.173 214.393 156.831C214.393 156.489 214.115 156.212 213.772 156.212Z" fill="white"/>
<path d="M226.71 156.212H225.579C225.236 156.212 224.958 156.489 224.958 156.831C224.958 157.173 225.236 157.451 225.579 157.451H226.71C227.053 157.451 227.331 157.173 227.331 156.831C227.331 156.489 227.053 156.212 226.71 156.212Z" fill="white"/>
<path d="M230.376 156.212H229.245C228.902 156.212 228.624 156.489 228.624 156.831C228.624 157.173 228.902 157.451 229.245 157.451H230.376C230.719 157.451 230.997 157.173 230.997 156.831C230.997 156.489 230.719 156.212 230.376 156.212Z" fill="white"/>
<path d="M223.191 156.315H216.16C215.817 156.315 215.539 156.593 215.539 156.935C215.539 157.277 215.817 157.554 216.16 157.554H223.191C223.534 157.554 223.812 157.277 223.812 156.935C223.812 156.593 223.534 156.315 223.191 156.315Z" fill="white"/>
<path d="M217.222 153.417H216.091C215.748 153.417 215.47 153.694 215.47 154.036C215.47 154.378 215.748 154.655 216.091 154.655H217.222C217.565 154.655 217.843 154.378 217.843 154.036C217.843 153.694 217.565 153.417 217.222 153.417Z" fill="white"/>
<path d="M230.16 153.417H229.029C228.686 153.417 228.408 153.694 228.408 154.036C228.408 154.378 228.686 154.655 229.029 154.655H230.16C230.503 154.655 230.781 154.378 230.781 154.036C230.781 153.694 230.503 153.417 230.16 153.417Z" fill="white"/>
<path d="M233.826 153.417H232.695C232.352 153.417 232.074 153.694 232.074 154.036C232.074 154.378 232.352 154.655 232.695 154.655H233.826C234.169 154.655 234.447 154.378 234.447 154.036C234.447 153.694 234.169 153.417 233.826 153.417Z" fill="white"/>
<path d="M226.641 153.52H219.61C219.267 153.52 218.989 153.797 218.989 154.139C218.989 154.481 219.267 154.759 219.61 154.759H226.641C226.984 154.759 227.262 154.481 227.262 154.139C227.262 153.797 226.984 153.52 226.641 153.52Z" fill="white"/>
<path d="M200.858 194.561L195.547 186.191L212.216 172.941L219.096 165.34C219.99 164.353 221.128 163.617 222.397 163.205C223.666 162.794 225.02 162.721 226.326 162.996C227.631 163.27 228.841 163.881 229.836 164.767C230.83 165.654 231.574 166.786 231.992 168.049C232.612 169.92 232.479 171.959 231.62 173.735C230.762 175.51 229.245 176.884 227.39 177.565L216.51 181.562L200.858 194.561Z" fill="#FFB6B6"/>
<path d="M76.2549 133.87V174.553H104.837V133.87C104.838 133.577 104.744 133.292 104.57 133.057C104.396 132.821 104.151 132.647 103.87 132.561C103.738 132.517 103.6 132.496 103.461 132.498H77.6353C77.4542 132.497 77.2749 132.532 77.1075 132.601C76.9401 132.67 76.788 132.771 76.6598 132.898C76.5316 133.026 76.4299 133.177 76.3604 133.344C76.2909 133.511 76.2551 133.689 76.2549 133.87ZM87.4093 147.849C87.4168 147.047 87.7415 146.28 88.3129 145.716C88.8843 145.151 89.6561 144.834 90.4605 144.834C91.2648 144.834 92.0366 145.151 92.608 145.716C93.1794 146.28 93.5042 147.047 93.5116 147.849V152.569C93.5075 153.373 93.1842 154.143 92.6125 154.711C92.0407 155.278 91.267 155.596 90.4605 155.596C89.6539 155.596 88.8802 155.278 88.3085 154.711C87.7367 154.143 87.4134 153.373 87.4093 152.569V147.849Z" fill="#2F2E41"/>
<path d="M76.1675 173.252V177.175C76.1681 177.378 76.2491 177.573 76.3928 177.717C76.5366 177.861 76.7315 177.943 76.9352 177.945H104.157C104.361 177.943 104.556 177.862 104.7 177.718C104.844 177.574 104.925 177.378 104.925 177.175V173.252H76.1675Z" fill="#3F3D56"/>
<path d="M31.291 72.5759V146.857C31.2918 147.804 31.6692 148.711 32.3405 149.381C33.0117 150.05 33.9219 150.426 34.8713 150.427H145.262C146.211 150.426 147.121 150.05 147.793 149.381C148.464 148.711 148.841 147.804 148.842 146.857V72.5759C148.84 71.6301 148.462 70.7238 147.791 70.0554C147.12 69.387 146.21 69.011 145.262 69.0098H34.8713C33.9228 69.011 33.0134 69.387 32.3424 70.0554C31.6713 70.7238 31.2933 71.6301 31.291 72.5759Z" fill="#3F3D56"/>
<path d="M33.8809 73.5001V145.941C33.8817 146.447 34.0836 146.931 34.4422 147.289C34.8009 147.647 35.2871 147.848 35.7943 147.849H144.343C144.85 147.848 145.336 147.647 145.695 147.289C146.054 146.931 146.256 146.447 146.256 145.941V73.5001C146.256 72.9937 146.055 72.508 145.696 72.1496C145.338 71.7912 144.851 71.5892 144.343 71.5881H35.7943C35.2865 71.5892 34.7998 71.7912 34.4411 72.1496C34.0824 72.508 33.8809 72.9937 33.8809 73.5001Z" fill="white"/>
<path d="M54.026 177.679C54.1365 177.817 54.2769 177.928 54.4367 178.004C54.5966 178.081 54.7717 178.12 54.9489 178.119H119.528C119.705 178.119 119.879 178.079 120.039 178.003C120.198 177.928 120.339 177.817 120.45 177.681C120.561 177.544 120.64 177.384 120.682 177.213C120.723 177.042 120.726 176.863 120.69 176.691L119.687 171.943C119.646 171.749 119.556 171.569 119.427 171.419C119.298 171.268 119.133 171.153 118.948 171.082C118.813 171.029 118.67 171.003 118.526 171.003H55.9474C55.8031 171.003 55.66 171.029 55.5257 171.082C55.3402 171.153 55.1752 171.268 55.046 171.419C54.9168 171.569 54.8273 171.749 54.7858 171.943L53.7833 176.691C53.7476 176.863 53.7509 177.041 53.7929 177.212C53.8349 177.383 53.9145 177.542 54.026 177.679Z" fill="#2F2E41"/>
<path d="M140.821 81.5672H39.252C39.1464 81.5648 39.0459 81.5214 38.9721 81.4461C38.8983 81.3708 38.8569 81.2697 38.8569 81.1644C38.8569 81.0591 38.8983 80.958 38.9721 80.8827C39.0459 80.8075 39.1464 80.764 39.252 80.7617H140.821C140.926 80.764 141.027 80.8075 141.1 80.8827C141.174 80.958 141.216 81.0591 141.216 81.1644C141.216 81.2697 141.174 81.3708 141.1 81.4461C141.027 81.5214 140.926 81.5648 140.821 81.5672Z" fill="#3F3D56"/>
<path d="M46.1654 78.7052C47.4728 78.7052 48.5325 77.6249 48.5325 76.2923C48.5325 74.9596 47.4728 73.8793 46.1654 73.8793C44.8581 73.8793 43.7983 74.9596 43.7983 76.2923C43.7983 77.6249 44.8581 78.7052 46.1654 78.7052Z" fill="#3F3D56"/>
<path d="M54.3427 78.7052C55.65 78.7052 56.7098 77.6249 56.7098 76.2923C56.7098 74.9596 55.65 73.8793 54.3427 73.8793C53.0354 73.8793 51.9756 74.9596 51.9756 76.2923C51.9756 77.6249 53.0354 78.7052 54.3427 78.7052Z" fill="#3F3D56"/>
<path d="M62.5204 78.7052C63.8277 78.7052 64.8875 77.6249 64.8875 76.2923C64.8875 74.9596 63.8277 73.8793 62.5204 73.8793C61.2131 73.8793 60.1533 74.9596 60.1533 76.2923C60.1533 77.6249 61.2131 78.7052 62.5204 78.7052Z" fill="#3F3D56"/>
<path d="M135.896 74.476H130.088C129.973 74.4786 129.864 74.526 129.784 74.6079C129.704 74.6898 129.659 74.7998 129.659 74.9143C129.659 75.0288 129.704 75.1388 129.784 75.2207C129.864 75.3026 129.973 75.3499 130.088 75.3526H135.896C136.012 75.351 136.122 75.3041 136.203 75.2221C136.284 75.14 136.33 75.0295 136.33 74.9143C136.33 74.7991 136.284 74.6885 136.203 74.6065C136.122 74.5245 136.012 74.4776 135.896 74.476Z" fill="#3F3D56"/>
<path d="M135.896 76.1222H130.088C129.973 76.1247 129.864 76.172 129.784 76.2539C129.703 76.3358 129.658 76.4459 129.658 76.5605C129.658 76.6751 129.703 76.7851 129.784 76.8671C129.864 76.949 129.973 76.9963 130.088 76.9988H135.896C136.012 76.9974 136.122 76.9506 136.204 76.8686C136.285 76.7865 136.33 76.6758 136.33 76.5605C136.33 76.4451 136.285 76.3344 136.204 76.2524C136.122 76.1703 136.012 76.1235 135.896 76.1222Z" fill="#3F3D56"/>
<path d="M135.896 77.7683H130.088C129.973 77.771 129.864 77.8184 129.784 77.9003C129.704 77.9822 129.659 78.0922 129.659 78.2067C129.659 78.3212 129.704 78.4312 129.784 78.5131C129.864 78.595 129.973 78.6423 130.088 78.645H135.896C136.012 78.6434 136.122 78.5965 136.203 78.5144C136.284 78.4324 136.33 78.3219 136.33 78.2067C136.33 78.0915 136.284 77.9809 136.203 77.8989C136.122 77.8169 136.012 77.77 135.896 77.7683Z" fill="#3F3D56"/>
<path d="M275.915 174.974C276.09 175.482 276.423 175.923 276.865 176.231C277.307 176.54 277.835 176.701 278.375 176.692L288.913 176.421C289.457 176.411 289.982 176.225 290.411 175.892C290.84 175.559 291.149 175.097 291.292 174.574L292.784 158.672C293.313 158.911 293.889 159.029 294.47 159.018C294.974 159.005 295.471 158.893 295.933 158.689C296.394 158.485 296.81 158.192 297.158 157.828C297.506 157.463 297.778 157.033 297.96 156.564C298.141 156.094 298.228 155.593 298.215 155.09C298.203 154.587 298.091 154.091 297.886 153.631C297.681 153.171 297.388 152.756 297.022 152.409C296.656 152.063 296.225 151.791 295.754 151.61C295.283 151.429 294.781 151.343 294.277 151.355C294.045 151.355 293.813 151.379 293.586 151.427C293.339 151.161 293.039 150.949 292.705 150.805C292.371 150.661 292.011 150.589 291.647 150.593L275.437 151.01C275.302 151.015 275.168 151.032 275.037 151.06C274.681 151.126 274.344 151.267 274.048 151.474C273.752 151.681 273.503 151.949 273.32 152.259C273.136 152.57 273.021 152.916 272.983 153.275C272.945 153.633 272.984 153.996 273.098 154.338L275.915 174.974ZM293.09 157.593L294.151 153.803C294.272 153.365 294.274 152.904 294.159 152.465C294.21 152.464 294.256 152.44 294.307 152.44C295.035 152.425 295.739 152.698 296.265 153.2C296.791 153.702 297.095 154.391 297.112 155.116C297.129 155.842 296.857 156.545 296.356 157.07C295.854 157.596 295.164 157.902 294.436 157.921C293.966 157.936 293.5 157.822 293.09 157.593Z" fill="#2F2E41"/>
<path d="M275.037 151.06C275.382 153.029 279.265 154.413 283.934 154.172C288.227 153.975 291.738 152.472 292.381 150.69C292.143 150.62 291.895 150.587 291.647 150.593L275.436 151.01C275.302 151.015 275.168 151.032 275.037 151.06Z" fill="#3F3D56"/>
<path d="M284.79 166.236C284.811 166.23 284.831 166.221 284.85 166.209L287.138 164.715C287.166 164.697 287.189 164.673 287.204 164.644C287.22 164.615 287.228 164.583 287.228 164.55C287.228 164.517 287.22 164.484 287.205 164.455C287.189 164.426 287.166 164.402 287.138 164.384L284.76 162.83C284.738 162.816 284.713 162.806 284.688 162.801C284.662 162.796 284.636 162.796 284.61 162.801C284.584 162.807 284.56 162.817 284.538 162.831C284.517 162.846 284.498 162.865 284.484 162.887C284.469 162.909 284.459 162.933 284.455 162.959C284.45 162.984 284.45 163.011 284.455 163.036C284.461 163.062 284.471 163.086 284.486 163.108C284.501 163.129 284.52 163.147 284.542 163.162L286.666 164.549L284.632 165.877C284.593 165.903 284.564 165.942 284.55 165.987C284.537 166.032 284.54 166.08 284.559 166.123C284.578 166.166 284.611 166.201 284.653 166.221C284.696 166.242 284.744 166.247 284.79 166.236Z" fill="#6C63FF"/>
<path d="M281.175 166.402C281.213 166.392 281.248 166.371 281.274 166.342C281.301 166.312 281.318 166.276 281.323 166.236C281.329 166.197 281.322 166.157 281.305 166.122C281.287 166.087 281.259 166.057 281.225 166.037L279.116 164.831L281.155 163.321C281.175 163.306 281.193 163.286 281.207 163.264C281.22 163.242 281.229 163.217 281.233 163.191C281.236 163.165 281.235 163.139 281.229 163.114C281.222 163.089 281.211 163.065 281.196 163.044C281.18 163.023 281.16 163.005 281.138 162.992C281.116 162.979 281.091 162.97 281.065 162.966C281.039 162.962 281.013 162.964 280.988 162.97C280.962 162.976 280.938 162.988 280.917 163.003L278.635 164.694C278.608 164.714 278.587 164.739 278.573 164.769C278.559 164.799 278.553 164.832 278.555 164.865C278.556 164.898 278.567 164.929 278.584 164.957C278.601 164.985 278.626 165.009 278.654 165.025L281.027 166.382C281.072 166.407 281.125 166.414 281.175 166.402Z" fill="#6C63FF"/>
<path d="M284.562 167.545C284.581 167.54 284.599 167.532 284.616 167.522C284.639 167.508 284.658 167.49 284.673 167.469C284.689 167.448 284.7 167.424 284.706 167.399C284.712 167.374 284.714 167.348 284.71 167.322C284.706 167.296 284.696 167.271 284.683 167.249L281.439 161.93C281.411 161.885 281.367 161.853 281.316 161.841C281.264 161.829 281.21 161.837 281.165 161.864C281.12 161.892 281.088 161.936 281.075 161.987C281.063 162.038 281.071 162.092 281.099 162.137L284.343 167.456C284.365 167.492 284.398 167.52 284.438 167.536C284.477 167.552 284.521 167.555 284.562 167.545Z" fill="#6C63FF"/>
<path d="M102.172 103.463H84.5924C83.8753 103.463 83.2939 104.043 83.2939 104.758V106.471C83.2939 107.186 83.8753 107.766 84.5924 107.766H102.172C102.889 107.766 103.47 107.186 103.47 106.471V104.758C103.47 104.043 102.889 103.463 102.172 103.463Z" fill="#6C63FF"/>
<path d="M112.419 112.068H74.3459C73.6287 112.068 73.0474 112.648 73.0474 113.363V115.075C73.0474 115.79 73.6287 116.37 74.3459 116.37H112.419C113.136 116.37 113.717 115.79 113.717 115.075V113.363C113.717 112.648 113.136 112.068 112.419 112.068Z" fill="#E6E6E6"/>
<path d="M112.419 120.672H74.3459C73.6287 120.672 73.0474 121.252 73.0474 121.967V123.68C73.0474 124.395 73.6287 124.974 74.3459 124.974H112.419C113.136 124.974 113.717 124.395 113.717 123.68V121.967C113.717 121.252 113.136 120.672 112.419 120.672Z" fill="#E6E6E6"/>
<path d="M115.646 149.485L115.732 149.757L115.737 149.766L118.332 157.635L121.319 166.703L126.937 183.745L126.991 186.392V186.401L127.409 207.696L126.251 210.583L127.554 215.317C127.554 215.317 126.955 208.162 123.742 212.271C121.922 214.606 119.794 216.995 118.047 219.235C120.592 220.262 123.179 221.191 125.807 222.022C126.374 222.203 126.946 222.375 127.517 222.547C127.64 222.584 127.762 222.62 127.885 222.656C136.595 225.224 145.599 226.668 154.677 226.95C155.149 226.964 155.612 226.973 156.062 226.982C156.22 226.986 156.375 226.991 156.529 226.991C157.037 226.996 157.541 227 158.049 227C159.075 227 160.096 226.985 161.112 226.955C168.636 226.743 176.116 225.735 183.426 223.946C183.376 220.936 183.24 217.42 183.045 213.664C182.954 211.823 180.916 209.827 180.794 207.899C180.707 206.451 182.536 205.089 182.441 203.619C181.824 194.564 181.052 198.04 180.481 191.628C180.422 190.999 180.367 190.397 180.317 189.822C179.95 185.704 179.696 183.129 179.696 183.129L182.137 167.785L185.972 143.693L185.677 143.209L185.345 143.046L165.119 133.063L164.021 130.258C163.701 129.45 163.146 128.755 162.427 128.264C161.708 127.773 160.858 127.508 159.987 127.502L146.663 127.448C145.972 127.445 145.29 127.606 144.673 127.918C144.057 128.231 143.524 128.685 143.119 129.244L139.511 134.226L115.646 149.485Z" fill="#3F3D56"/>
<path d="M130.009 179.953L126.991 186.392L124.931 190.79L121.387 209.294L119.612 211.172L118.092 204.524L102.181 208.047C101.659 205.155 102.041 208.144 101.719 204.972C101.81 204.882 101.905 204.791 102 204.701C102.254 204.465 102.468 204.244 102.463 204.031C102.281 193.089 102.826 174.468 107.373 163.187C108.085 161.345 109.024 159.599 110.169 157.988C110.259 157.866 110.346 157.743 110.432 157.621C112.528 154.694 113.853 151.811 115.732 149.761V149.757C115.744 149.747 115.754 149.737 115.764 149.725C115.771 149.722 115.777 149.717 115.782 149.711L128.688 142.887L129.242 158.4L129.637 169.55L130.009 179.953Z" fill="#3F3D56"/>
<path d="M176.546 181.782L180.315 189.824L181.631 192.625L185.174 211.127L186.943 213L188.467 206.354L189.183 206.207L202.095 203.541L205.858 215.459C206.706 214.05 207.041 212.392 206.804 210.765C206.568 209.138 205.775 207.643 204.561 206.532C204.304 206.3 204.09 206.074 204.096 205.861C204.31 192.991 203.521 169.492 196.391 159.82C194.127 156.751 192.769 153.694 190.792 151.558C190.786 151.552 190.786 151.546 190.78 151.546L185.97 143.692L185.676 143.21L185.346 143.046L176.546 181.782Z" fill="#3F3D56"/>
<path d="M153.71 123.667C163.499 123.667 171.435 115.753 171.435 105.992C171.435 96.2299 163.499 88.3165 153.71 88.3165C143.92 88.3165 135.984 96.2299 135.984 105.992C135.984 115.753 143.92 123.667 153.71 123.667Z" fill="#FFB6B6"/>
<path d="M177.668 93.6456C177.531 93.4993 177.365 93.382 177.181 93.3009C176.997 93.2198 176.799 93.1765 176.598 93.1736L176.865 92.4358C176.952 92.2034 176.975 91.9521 176.933 91.7077C176.89 91.4632 176.783 91.2345 176.623 91.0448C176.463 90.8551 176.255 90.7113 176.02 90.6281C175.786 90.5449 175.534 90.5253 175.289 90.5714L174.319 90.7578L174.41 90.1113C174.445 89.8704 174.417 89.6247 174.328 89.3981C174.239 89.1716 174.092 88.972 173.902 88.8191C173.712 88.6662 173.486 88.5653 173.245 88.5261C173.004 88.487 172.757 88.5111 172.529 88.596C172.32 88.6776 172.097 88.7118 171.874 88.696C171.651 88.6802 171.434 88.6149 171.24 88.5047C171.044 88.3979 170.875 88.25 170.743 88.0712C170.611 87.8923 170.52 87.687 170.476 87.4694L170.138 85.843L170.102 85.7558C168.455 83.0187 165.289 81.0274 161.414 80.2975C157.965 79.643 154.428 79.9762 151.019 80.2896C149.667 80.4165 148.139 80.5593 146.866 81.3368C145.784 82.0032 144.869 83.336 145.056 84.6808C141.695 83.6534 138.091 85.7042 136.305 88.2905C134.188 91.3687 133.842 95.2244 133.786 98.2391C133.635 105.371 135.111 111.206 138.162 115.586C138.385 115.903 138.441 116.565 138.882 116.788L138.791 116.641C139.284 116.887 139.785 117.283 139.598 117.708C139.061 118.93 142.63 121.631 145.144 122.524C149.73 124.154 155.829 124.015 160.117 123.428L160.268 122.416C161.816 122.206 162.906 121.806 163.212 121.179C163.753 120.719 164.214 120.306 164.616 119.925L164.62 119.921C164.628 119.913 164.644 119.901 164.652 119.894C166.589 118.041 167.039 116.986 167.242 115.379C167.437 113.805 167.091 112.206 166.737 110.766C174.191 111.916 163.801 102.848 170.746 101.095C170.826 101.071 170.907 101.051 170.989 101.036C171.192 100.988 171.395 100.94 171.59 100.885C172.529 100.631 173.429 100.247 174.263 99.7465C176.204 98.5684 176.845 97.0055 177.847 95.2442C177.992 94.9934 178.052 94.7032 178.02 94.4157C177.988 94.1282 177.865 93.8584 177.668 93.6456Z" fill="#2F2E41"/>
<path d="M216.402 183.04C216.398 183.734 216.39 184.706 216.358 185.908C216.354 186.075 216.351 186.245 216.347 186.42C216.295 188.629 216.243 190.482 216.16 192.54C216.156 192.683 216.152 192.822 216.144 192.965C216.032 195.837 215.857 199.181 215.555 204.476C214.994 214.258 214.015 205.821 213.033 209.252C212.985 209.423 212.933 209.625 212.886 209.863C212.737 210.727 212.486 211.57 212.138 212.374C211.617 212.684 211.08 212.981 210.551 213.279C209.043 214.116 207.511 214.921 205.968 215.686C205.101 216.115 204.229 216.535 203.354 216.94C203.215 217.003 203.08 217.067 202.945 217.126C198.463 219.193 193.844 220.951 189.121 222.386C188.198 222.664 187.279 222.934 186.348 223.184C185.378 223.453 184.407 223.707 183.424 223.945C176.115 225.735 168.635 226.744 161.111 226.956C160.097 226.988 159.075 227 158.048 227C157.539 227 157.038 226.996 156.529 226.992C156.374 226.992 156.219 226.988 156.063 226.984C155.614 226.972 155.148 226.964 154.679 226.952C145.601 226.67 136.596 225.226 127.887 222.656L127.517 222.549C126.944 222.374 126.375 222.204 125.806 222.021C123.181 221.192 120.594 220.264 118.045 219.237C116.1 218.455 114.177 217.617 112.277 216.722C112.26 216.717 112.244 216.709 112.229 216.698C111.832 216.515 111.43 216.325 111.032 216.131C110.98 216.103 110.925 216.075 110.869 216.047C109.385 215.325 107.917 214.569 106.465 213.778C105.244 210.982 103.525 210.446 102.459 207.987C102.149 207.256 101.925 206.492 101.791 205.71C101.791 205.702 101.787 205.694 101.787 205.682C101.898 207.158 101.314 203.064 101.783 205.666C101.779 205.619 101.775 205.567 101.771 205.508C101.759 205.365 101.743 205.19 101.719 204.972C100.355 191.688 100.442 176.495 99.8497 163.976C99.8099 163.167 99.7688 162.392 99.7264 161.651C99.7145 161.406 99.6985 161.164 99.6826 160.926C99.7105 160.854 99.7423 160.779 99.7781 160.707C99.7857 160.687 99.795 160.667 99.8059 160.648C99.8177 160.623 99.831 160.599 99.8457 160.576C99.8537 160.565 99.8656 160.549 99.8736 160.537C99.8794 160.523 99.886 160.51 99.8935 160.497C99.9293 160.442 99.969 160.382 100.013 160.327C100.033 160.303 100.049 160.283 100.068 160.263C100.082 160.243 100.098 160.224 100.116 160.208C100.128 160.189 100.143 160.171 100.16 160.156C100.176 160.14 100.192 160.12 100.212 160.1C100.22 160.088 100.231 160.077 100.244 160.069C100.275 160.033 100.31 160 100.347 159.97C100.489 159.839 100.64 159.72 100.8 159.613C100.856 159.577 100.916 159.541 100.971 159.502C101.372 159.262 101.795 159.061 102.233 158.899C102.384 158.843 102.535 158.791 102.698 158.736C102.758 158.72 102.813 158.7 102.873 158.68C102.961 158.653 103.048 158.625 103.14 158.605C103.593 158.47 104.082 158.355 104.611 158.248C104.675 158.236 104.743 158.224 104.81 158.208C104.906 158.189 105.005 158.173 105.105 158.157C105.24 158.133 105.379 158.109 105.518 158.085C106.7 157.899 108.04 157.76 109.52 157.669C109.66 157.661 109.799 157.653 109.938 157.645C110.101 157.637 110.264 157.629 110.431 157.621C110.571 157.613 110.714 157.609 110.857 157.605C110.996 157.597 111.139 157.593 111.287 157.59C111.688 157.578 112.102 157.566 112.524 157.558C113.725 157.534 114.99 157.542 116.319 157.57C116.935 157.586 117.564 157.601 118.208 157.629C118.252 157.629 118.292 157.633 118.332 157.633C118.893 157.653 119.457 157.677 120.038 157.709C120.444 157.728 120.854 157.748 121.263 157.772C121.649 157.796 122.039 157.82 122.433 157.847C122.739 157.863 123.046 157.887 123.356 157.907C123.618 157.927 123.881 157.947 124.144 157.962L124.502 157.986C124.696 158.002 124.891 158.014 125.09 158.034C125.528 158.07 125.966 158.105 126.411 158.141C126.853 158.181 127.302 158.22 127.752 158.26C128.201 158.3 128.655 158.343 129.108 158.387C129.156 158.391 129.2 158.395 129.243 158.399C129.657 158.442 130.071 158.482 130.489 158.526C130.584 158.534 130.683 158.542 130.779 158.553C131.177 158.593 131.583 158.64 131.985 158.683C132.108 158.696 132.231 158.709 132.355 158.722C132.67 158.756 132.98 158.786 133.297 158.823C133.715 158.871 134.14 158.914 134.554 158.97C134.876 159.006 135.198 159.041 135.521 159.081C136.026 159.141 136.539 159.204 137.052 159.271C137.247 159.295 137.442 159.319 137.637 159.347C139.101 159.529 140.581 159.732 142.084 159.942C144.364 160.263 146.679 160.612 149.01 160.989C151.345 161.366 153.694 161.764 156.055 162.183C156.652 162.29 157.249 162.397 157.849 162.508C158.12 162.56 158.39 162.611 158.661 162.663C159.122 162.746 159.584 162.834 160.045 162.921C160.507 163.008 160.968 163.095 161.43 163.187C161.979 163.294 162.532 163.401 163.081 163.508C166.697 164.222 170.293 164.984 173.801 165.781C174.378 165.912 174.955 166.047 175.528 166.178C176.674 166.443 177.809 166.713 178.933 166.987C179.243 167.058 179.55 167.133 179.856 167.209C180.62 167.399 181.384 167.59 182.135 167.784L182.267 167.82C182.82 167.955 183.361 168.093 183.902 168.236C185.179 168.569 186.434 168.907 187.669 169.248C188.488 169.474 189.298 169.703 190.099 169.934C191.297 170.279 192.47 170.628 193.612 170.981C193.894 171.069 194.177 171.156 194.455 171.239C195.291 171.497 196.114 171.759 196.914 172.021C197.55 172.227 198.171 172.437 198.783 172.647C199.396 172.858 199.997 173.068 200.586 173.278C200.963 173.413 201.337 173.556 201.711 173.691C202.248 173.889 202.777 174.087 203.295 174.286C203.454 174.345 203.609 174.408 203.764 174.468C203.863 174.512 203.959 174.547 204.054 174.587C204.241 174.662 204.432 174.734 204.615 174.809C204.802 174.881 204.985 174.956 205.168 175.035C205.347 175.107 205.53 175.182 205.705 175.257C205.884 175.329 206.059 175.404 206.234 175.483C206.382 175.543 206.525 175.606 206.664 175.67C206.946 175.793 207.229 175.916 207.503 176.043C207.639 176.106 207.774 176.166 207.909 176.229L208.219 176.372C208.263 176.396 208.307 176.416 208.351 176.436C208.45 176.483 208.554 176.535 208.653 176.582C208.884 176.689 209.11 176.804 209.333 176.912C209.632 177.062 209.922 177.213 210.2 177.36C210.483 177.51 210.757 177.661 211.02 177.808C211.064 177.832 211.103 177.856 211.147 177.879C211.207 177.911 211.267 177.947 211.326 177.979C211.529 178.094 211.724 178.213 211.919 178.328C212.301 178.562 212.663 178.792 213.001 179.022C213.077 179.073 213.148 179.125 213.224 179.173C213.474 179.351 213.713 179.526 213.936 179.704C213.936 179.708 213.936 179.708 213.94 179.708C214.015 179.764 214.087 179.823 214.159 179.879C214.218 179.934 214.282 179.982 214.342 180.037C214.548 180.216 214.739 180.386 214.914 180.561C214.973 180.615 215.029 180.672 215.081 180.731C215.105 180.751 215.126 180.772 215.145 180.795C215.225 180.874 215.296 180.954 215.364 181.033C215.374 181.044 215.384 181.056 215.392 181.069C215.487 181.18 215.575 181.291 215.658 181.402C215.698 181.457 215.742 181.513 215.778 181.568C215.825 181.636 215.873 181.707 215.913 181.775C215.949 181.83 215.981 181.89 216.012 181.945C216.097 182.088 216.169 182.238 216.227 182.394C216.272 182.499 216.308 182.608 216.335 182.719C216.365 182.824 216.387 182.932 216.402 183.04Z" fill="#2F2E41"/>
<path opacity="0.2" d="M216.402 183.04C216.398 183.734 216.39 184.706 216.359 185.908C216.355 186.075 216.347 186.245 216.343 186.42C216.303 188.106 216.243 190.188 216.16 192.54C216.156 192.683 216.152 192.822 216.144 192.965C216.032 195.837 215.857 199.181 215.555 204.476C214.994 214.258 214.015 205.821 213.033 209.252C210.304 207.578 207.312 205.825 204.114 204.024C203.537 203.699 202.955 203.372 202.368 203.044C195.971 199.486 188.827 195.758 181.368 192.064C181.073 191.918 180.775 191.771 180.481 191.628C163.395 183.207 144.746 175.015 129.637 169.549C126.721 168.494 123.937 167.542 121.319 166.705C115.806 164.948 111.04 163.718 107.372 163.187C103.553 162.631 100.916 162.83 99.8498 163.976C99.81 163.167 99.7689 162.392 99.7264 161.651C99.7105 161.406 99.6946 161.164 99.6787 160.926C99.7033 160.86 99.7352 160.798 99.766 160.735C99.7705 160.726 99.7736 160.716 99.7782 160.707C99.7858 160.687 99.7951 160.667 99.806 160.648C99.8177 160.623 99.831 160.599 99.8458 160.576C99.8587 160.548 99.8747 160.522 99.8935 160.497C99.9293 160.442 99.9691 160.382 100.013 160.327C100.045 160.285 100.08 160.245 100.116 160.208C100.129 160.188 100.143 160.171 100.16 160.156C100.176 160.14 100.192 160.12 100.212 160.1C100.22 160.088 100.231 160.077 100.244 160.069C100.275 160.033 100.31 159.999 100.347 159.97C100.489 159.839 100.641 159.72 100.801 159.613C100.856 159.577 100.916 159.541 100.972 159.501C101.372 159.262 101.795 159.061 102.233 158.899C102.384 158.843 102.535 158.791 102.698 158.736C102.758 158.72 102.813 158.7 102.873 158.68C102.961 158.653 103.048 158.625 103.14 158.605C103.593 158.47 104.082 158.355 104.611 158.248C104.771 158.216 104.938 158.185 105.105 158.157C105.24 158.133 105.379 158.109 105.518 158.085C106.7 157.899 108.041 157.76 109.52 157.669C109.66 157.661 109.799 157.653 109.938 157.645C110.101 157.637 110.264 157.629 110.431 157.621C110.571 157.613 110.714 157.609 110.857 157.605C110.996 157.597 111.139 157.593 111.287 157.59C111.688 157.578 112.102 157.566 112.524 157.558C113.725 157.538 114.99 157.546 116.319 157.574C116.935 157.586 117.564 157.605 118.208 157.633C118.248 157.633 118.292 157.637 118.332 157.637C118.893 157.653 119.462 157.681 120.038 157.709C120.444 157.728 120.854 157.748 121.264 157.772C121.649 157.796 122.039 157.82 122.433 157.847C122.739 157.863 123.046 157.887 123.356 157.907C123.619 157.927 123.881 157.946 124.144 157.962C124.458 157.986 124.772 158.01 125.09 158.034C125.528 158.069 125.966 158.105 126.411 158.141C126.853 158.181 127.302 158.22 127.752 158.26C128.201 158.3 128.655 158.343 129.108 158.387C129.156 158.391 129.2 158.395 129.243 158.399C129.657 158.442 130.071 158.482 130.489 158.526C132.804 158.76 135.187 159.033 137.637 159.347C139.101 159.533 140.584 159.733 142.085 159.946C144.364 160.267 146.679 160.616 149.01 160.989C151.345 161.366 153.694 161.764 156.055 162.183C156.652 162.29 157.249 162.397 157.85 162.508C158.582 162.643 159.313 162.781 160.045 162.921C160.507 163.008 160.968 163.095 161.43 163.187C161.979 163.294 162.532 163.401 163.081 163.508C166.697 164.222 170.293 164.984 173.801 165.781C174.378 165.912 174.955 166.047 175.528 166.178C176.674 166.443 177.809 166.713 178.933 166.987C179.243 167.062 179.55 167.137 179.856 167.213C180.624 167.403 181.384 167.594 182.135 167.784V167.788C182.179 167.796 182.223 167.808 182.267 167.82C182.816 167.959 183.361 168.097 183.902 168.24C185.179 168.573 186.434 168.909 187.669 169.248C188.488 169.478 189.3 169.704 190.1 169.934C191.297 170.283 192.47 170.632 193.612 170.981C193.895 171.068 194.177 171.156 194.455 171.239C195.291 171.501 196.11 171.761 196.914 172.021C197.55 172.227 198.171 172.437 198.784 172.647C199.396 172.857 199.997 173.068 200.586 173.278C200.967 173.413 201.341 173.552 201.711 173.687C202.252 173.885 202.778 174.083 203.295 174.286C203.454 174.345 203.609 174.409 203.764 174.468C204.054 174.579 204.337 174.694 204.615 174.809C204.802 174.881 204.985 174.956 205.168 175.035C205.347 175.107 205.53 175.182 205.705 175.257C205.884 175.329 206.059 175.404 206.234 175.483C206.382 175.543 206.525 175.606 206.664 175.67C206.946 175.793 207.229 175.916 207.503 176.043C207.639 176.106 207.774 176.166 207.909 176.229L208.219 176.372C208.263 176.396 208.307 176.416 208.351 176.435C208.689 176.594 209.015 176.753 209.333 176.912C209.632 177.062 209.922 177.213 210.201 177.36C210.531 177.534 210.845 177.705 211.147 177.879C211.207 177.911 211.267 177.947 211.326 177.979C211.529 178.094 211.724 178.213 211.919 178.328C212.301 178.562 212.663 178.792 213.001 179.022C213.335 179.252 213.646 179.478 213.936 179.704C213.936 179.708 213.936 179.708 213.94 179.708C214.079 179.819 214.214 179.93 214.342 180.037C214.549 180.216 214.739 180.386 214.915 180.561C214.973 180.615 215.029 180.672 215.082 180.731C215.105 180.751 215.126 180.772 215.145 180.795C215.229 180.886 215.312 180.977 215.392 181.069C215.487 181.18 215.575 181.291 215.658 181.402C215.698 181.457 215.742 181.513 215.778 181.568C215.825 181.636 215.873 181.707 215.913 181.775C215.949 181.83 215.981 181.89 216.012 181.945C216.097 182.088 216.169 182.238 216.227 182.394C216.271 182.499 216.307 182.608 216.335 182.719C216.365 182.824 216.387 182.932 216.402 183.04Z" fill="black"/>
</g>
<defs>
<clipPath id="clip0_41_392">
<rect width="313" height="227" fill="white"/>
</clipPath>
</defs>
</svg>
